<?xml version="1.0" encoding="UTF-8" standalone="no"?>
<!-- Created with Inkscape (http://www.inkscape.org/) -->

<svg
   width="200mm"
   height="50mm"
   viewBox="0 0 200 50"
   version="1.1"
   id="svg5"
   inkscape:version="1.2 (dc2aedaf03, 2022-05-15)"
   sodipodi:docname="PulsePanelGraphicsHorizontal.svg"
   inkscape:export-filename="TuringPanelGraphics.png"
   inkscape:export-xdpi="100"
   inkscape:export-ydpi="100"
   xmlns:inkscape="http://www.inkscape.org/namespaces/inkscape"
   xmlns:sodipodi="http://sodipodi.sourceforge.net/DTD/sodipodi-0.dtd"
   xmlns="http://www.w3.org/2000/svg"
   xmlns:svg="http://www.w3.org/2000/svg">
  <sodipodi:namedview
     id="namedview7"
     pagecolor="#ffffff"
     bordercolor="#666666"
     borderopacity="1.0"
     inkscape:pageshadow="2"
     inkscape:pageopacity="0.0"
     inkscape:pagecheckerboard="0"
     inkscape:document-units="mm"
     showgrid="true"
     showguides="true"
     inkscape:zoom="1.7394827"
     inkscape:cx="345.21758"
     inkscape:cy="39.092082"
     inkscape:window-width="1920"
     inkscape:window-height="1017"
     inkscape:window-x="-8"
     inkscape:window-y="-8"
     inkscape:window-maximized="1"
     inkscape:current-layer="layer2"
     inkscape:showpageshadow="2"
     inkscape:deskcolor="#d1d1d1">
    <sodipodi:guide
       position="0,50.000001"
       orientation="0,377.95276"
       id="guide824"
       inkscape:locked="false" />
    <sodipodi:guide
       position="50,-50"
       orientation="755.90551,0"
       id="guide826"
       inkscape:locked="false" />
    <sodipodi:guide
       position="99.999999,-150"
       orientation="0,-377.95276"
       id="guide828"
       inkscape:locked="false" />
    <sodipodi:guide
       position="0,-150"
       orientation="-755.90551,0"
       id="guide830"
       inkscape:locked="false" />
    <inkscape:grid
       type="xygrid"
       id="grid832"
       dotted="true"
       units="mm"
       spacingx="2.5"
       spacingy="2.5"
       empspacing="10"
       originx="0"
       originy="0" />
    <sodipodi:guide
       position="30,25.000001"
       orientation="0,-1"
       id="guide454"
       inkscape:locked="false" />
    <sodipodi:guide
       position="25,-112.5"
       orientation="1,0"
       id="guide456"
       inkscape:locked="false" />
    <sodipodi:guide
       position="12.5,37.500001"
       orientation="1,0"
       id="guide458"
       inkscape:locked="false" />
    <sodipodi:guide
       position="20,-125"
       orientation="0,-1"
       id="guide460"
       inkscape:locked="false" />
    <sodipodi:guide
       position="50,-99.999999"
       orientation="0,-1"
       id="guide462"
       inkscape:locked="false" />
    <sodipodi:guide
       position="37.5,37.5"
       orientation="1,0"
       id="guide464"
       inkscape:locked="false" />
    <sodipodi:guide
       position="62.5,-75"
       orientation="1,0"
       id="guide466"
       inkscape:locked="false" />
    <sodipodi:guide
       position="25,1.1444091e-06"
       orientation="0,-1"
       id="guide5561"
       inkscape:locked="false" />
    <sodipodi:guide
       position="-67.074639,-135.07632"
       orientation="0,-1"
       id="guide540"
       inkscape:locked="false" />
    <sodipodi:guide
       position="25,-112.5"
       orientation="0,-1"
       id="guide1017"
       inkscape:locked="false" />
    <sodipodi:guide
       position="-207.9625,-24.877079"
       orientation="0,-1"
       id="guide691"
       inkscape:locked="false" />
    <sodipodi:guide
       position="-200,-50"
       orientation="0,-1"
       id="guide693"
       inkscape:locked="false" />
    <sodipodi:guide
       position="-200,-75"
       orientation="0,-1"
       id="guide695"
       inkscape:locked="false" />
    <sodipodi:guide
       position="22.5,55.000001"
       orientation="1,0"
       id="guide787"
       inkscape:locked="false" />
    <sodipodi:guide
       position="27.5,60.000001"
       orientation="1,0"
       id="guide789"
       inkscape:locked="false" />
    <sodipodi:guide
       position="-57.5,40.000001"
       orientation="0,-1"
       id="guide1208"
       inkscape:locked="false" />
    <sodipodi:guide
       position="-140,12.500001"
       orientation="0,-1"
       id="guide8370"
       inkscape:locked="false" />
    <sodipodi:guide
       position="-112.5,-12.499999"
       orientation="0,-1"
       id="guide8372"
       inkscape:locked="false" />
    <sodipodi:guide
       position="-32.5,-87.499999"
       orientation="0,-1"
       id="guide8374"
       inkscape:locked="false" />
  </sodipodi:namedview>
  <defs
     id="defs2">
    <rect
       x="-75.590553"
       y="113.38583"
       width="56.692913"
       height="56.692913"
       id="rect727" />
    <rect
       x="-236.22047"
       y="141.73228"
       width="330.70865"
       height="47.244099"
       id="rect3872" />
    <rect
       x="141.73228"
       y="0"
       width="141.73228"
       height="47.244095"
       id="rect3812" />
    <rect
       x="-236.22047"
       y="141.73228"
       width="61.550629"
       height="26.75382"
       id="rect3872-8" />
    <rect
       x="-236.22047"
       y="141.73228"
       width="61.550629"
       height="26.75382"
       id="rect3872-8-7" />
    <rect
       x="-236.22047"
       y="141.73228"
       width="61.550629"
       height="26.75382"
       id="rect3872-8-8" />
    <rect
       x="-236.22047"
       y="141.73228"
       width="61.550629"
       height="26.75382"
       id="rect3872-8-4" />
    <rect
       x="-236.22047"
       y="141.73228"
       width="61.550629"
       height="26.75382"
       id="rect3872-8-44" />
    <rect
       x="-236.22047"
       y="141.73228"
       width="61.550629"
       height="26.75382"
       id="rect3872-8-448" />
    <rect
       x="-236.22047"
       y="141.73228"
       width="61.550629"
       height="26.75382"
       id="rect3872-8-5" />
    <rect
       x="-236.22047"
       y="141.73228"
       width="61.550629"
       height="26.75382"
       id="rect3872-8-0" />
    <rect
       x="-236.22047"
       y="141.73228"
       width="61.550629"
       height="26.75382"
       id="rect3872-8-53" />
    <rect
       x="-236.22047"
       y="141.73228"
       width="61.550629"
       height="26.75382"
       id="rect3872-8-53-0" />
    <rect
       x="-236.22047"
       y="141.73228"
       width="61.550629"
       height="26.75382"
       id="rect3872-8-53-2" />
    <rect
       x="-236.22047"
       y="141.73228"
       width="61.550629"
       height="26.75382"
       id="rect3872-8-53-1" />
    <rect
       x="-236.22047"
       y="141.73228"
       width="61.550629"
       height="26.75382"
       id="rect3872-8-53-5" />
    <rect
       x="-236.22047"
       y="141.73228"
       width="61.550629"
       height="26.75382"
       id="rect3872-8-53-9" />
    <rect
       x="-236.22047"
       y="141.73228"
       width="61.550629"
       height="26.75382"
       id="rect3872-8-53-3" />
    <rect
       x="-236.22047"
       y="141.73228"
       width="61.550629"
       height="26.75382"
       id="rect3872-8-53-27" />
    <rect
       x="-236.22047"
       y="141.73228"
       width="61.550629"
       height="26.75382"
       id="rect3872-8-53-57" />
  </defs>
  <g
     inkscape:label="Layer 1"
     inkscape:groupmode="layer"
     id="layer1">
    <text
       xml:space="preserve"
       transform="scale(0.26458333)"
       id="text3810"
       style="font-style:normal;font-weight:normal;font-size:40px;line-height:1.25;font-family:sans-serif;letter-spacing:0px;word-spacing:0px;white-space:pre;shape-inside:url(#rect3812);display:inline;fill:#000000;fill-opacity:1;stroke:none"><tspan
         x="141.73242"
         y="83.737353"
         id="tspan19617"><tspan
           dx="0 15.761719 29.277344 27.8125 16.835938 29.921875 31.015625 14.0625 38.90625 27.34375 27.929688 30.058594 16.835938 29.921875"
           id="tspan19615">tURING mACHINE</tspan></tspan></text>
    <text
       xml:space="preserve"
       transform="scale(0.26458333)"
       id="text725"
       style="font-style:normal;font-weight:normal;font-size:40px;line-height:1.25;font-family:sans-serif;letter-spacing:0px;word-spacing:0px;white-space:pre;shape-inside:url(#rect727);display:inline;fill:#000000;fill-opacity:1;stroke:none" />
  </g>
  <g
     inkscape:groupmode="layer"
     id="layer2"
     inkscape:label="Knobs"
     style="display:inline">
    <g
       id="g13330">
      <path
         id="path3335"
         style="font-size:7.05556px;font-family:Myfont;-inkscape-font-specification:'Myfont, Normal';letter-spacing:0px;word-spacing:0px;fill:#000000;stroke:#000000;stroke-width:0.64038432;stroke-opacity:1;stroke-dasharray:none"
         d="M 24.999998,24.679487 A 2.179487,2.179487 0 0 0 27.179485,22.5 2.179487,2.179487 0 0 0 24.999998,20.320513 2.179487,2.179487 0 0 0 22.820511,22.5 a 2.179487,2.179487 0 0 0 2.179487,2.179487 z"
         inkscape:transform-center-x="4.8861044" />
      <path
         id="path3335-6"
         style="font-size:7.05556px;font-family:Myfont;-inkscape-font-specification:'Myfont, Normal';letter-spacing:0px;word-spacing:0px;fill:#000000;stroke:#000000;stroke-width:0.64038432;stroke-opacity:1;stroke-dasharray:none"
         d="M 37.5,29.679487 A 2.179487,2.179487 0 0 0 39.679487,27.5 2.179487,2.179487 0 0 0 37.5,25.320513 2.179487,2.179487 0 0 0 35.320513,27.5 2.179487,2.179487 0 0 0 37.5,29.679487 Z"
         inkscape:transform-center-x="4.8861044" />
      <path
         id="path3335-0"
         style="font-size:7.05556px;font-family:Myfont;-inkscape-font-specification:'Myfont, Normal';letter-spacing:0px;word-spacing:0px;fill:#000000;stroke:#000000;stroke-width:0.64038432;stroke-opacity:1;stroke-dasharray:none"
         d="M 50,24.679487 A 2.179487,2.179487 0 0 0 52.179487,22.5 2.179487,2.179487 0 0 0 50,20.320513 2.179487,2.179487 0 0 0 47.820513,22.5 2.179487,2.179487 0 0 0 50,24.679487 Z"
         inkscape:transform-center-x="4.8861044" />
      <path
         id="path3335-4"
         style="font-size:7.05556px;font-family:Myfont;-inkscape-font-specification:'Myfont, Normal';letter-spacing:0px;word-spacing:0px;fill:#000000;stroke:#000000;stroke-width:0.64038432;stroke-opacity:1;stroke-dasharray:none"
         d="M 62.5,29.679487 A 2.179487,2.179487 0 0 0 64.679487,27.5 2.179487,2.179487 0 0 0 62.5,25.320513 2.179487,2.179487 0 0 0 60.320513,27.5 2.179487,2.179487 0 0 0 62.5,29.679487 Z"
         inkscape:transform-center-x="4.8861044" />
      <path
         id="path3335-47"
         style="font-size:7.05556px;font-family:Myfont;-inkscape-font-specification:'Myfont, Normal';letter-spacing:0px;word-spacing:0px;fill:#000000;stroke:#000000;stroke-width:0.64038432;stroke-opacity:1;stroke-dasharray:none"
         d="M 74.877083,24.679487 A 2.179487,2.179487 0 0 0 77.05657,22.5 2.179487,2.179487 0 0 0 74.877083,20.320513 2.179487,2.179487 0 0 0 72.697596,22.5 a 2.179487,2.179487 0 0 0 2.179487,2.179487 z"
         inkscape:transform-center-x="4.8861044" />
      <path
         id="path3335-9"
         style="font-size:7.05556px;font-family:Myfont;-inkscape-font-specification:'Myfont, Normal';letter-spacing:0px;word-spacing:0px;fill:#000000;stroke:#000000;stroke-width:0.64038432;stroke-opacity:1;stroke-dasharray:none"
         d="M 100,24.679487 A 2.179487,2.179487 0 0 0 102.17949,22.5 2.179487,2.179487 0 0 0 100,20.320513 2.179487,2.179487 0 0 0 97.820513,22.5 2.179487,2.179487 0 0 0 100,24.679487 Z"
         inkscape:transform-center-x="4.8861044" />
      <path
         id="path3335-2"
         style="font-size:7.05556px;font-family:Myfont;-inkscape-font-specification:'Myfont, Normal';letter-spacing:0px;word-spacing:0px;fill:#000000;stroke:#000000;stroke-width:0.64038432;stroke-opacity:1;stroke-dasharray:none"
         d="M 125,24.679487 A 2.179487,2.179487 0 0 0 127.17949,22.5 2.179487,2.179487 0 0 0 125,20.320513 2.179487,2.179487 0 0 0 122.82051,22.5 2.179487,2.179487 0 0 0 125,24.679487 Z"
         inkscape:transform-center-x="4.8861044" />
      <path
         id="path3335-1"
         style="font-size:7.05556px;font-family:Myfont;-inkscape-font-specification:'Myfont, Normal';letter-spacing:0px;word-spacing:0px;fill:#000000;stroke:#000000;stroke-width:0.64038432;stroke-opacity:1;stroke-dasharray:none"
         d="M 137.5,29.679487 A 2.179487,2.179487 0 0 0 139.67949,27.5 2.179487,2.179487 0 0 0 137.5,25.320513 2.179487,2.179487 0 0 0 135.32051,27.5 2.179487,2.179487 0 0 0 137.5,29.679487 Z"
         inkscape:transform-center-x="4.8861044" />
      <path
         id="path3335-8"
         style="font-size:7.05556px;font-family:Myfont;-inkscape-font-specification:'Myfont, Normal';letter-spacing:0px;word-spacing:0px;fill:#000000;stroke:#000000;stroke-width:0.64038432;stroke-opacity:1;stroke-dasharray:none"
         d="M 150,24.679487 A 2.179487,2.179487 0 0 0 152.17949,22.5 2.179487,2.179487 0 0 0 150,20.320513 2.179487,2.179487 0 0 0 147.82051,22.5 2.179487,2.179487 0 0 0 150,24.679487 Z"
         inkscape:transform-center-x="4.8861044" />
      <path
         id="path3335-21"
         style="font-size:7.05556px;font-family:Myfont;-inkscape-font-specification:'Myfont, Normal';letter-spacing:0px;word-spacing:0px;fill:#000000;stroke:#000000;stroke-width:0.64038432;stroke-opacity:1;stroke-dasharray:none"
         d="M 162.5,29.679487 A 2.179487,2.179487 0 0 0 164.67949,27.5 2.179487,2.179487 0 0 0 162.5,25.320513 2.179487,2.179487 0 0 0 160.32051,27.5 2.179487,2.179487 0 0 0 162.5,29.679487 Z"
         inkscape:transform-center-x="4.8861044" />
      <path
         id="path3335-85"
         style="font-size:7.05556px;font-family:Myfont;-inkscape-font-specification:'Myfont, Normal';letter-spacing:0px;word-spacing:0px;fill:#000000;stroke:#000000;stroke-width:0.64038432;stroke-opacity:1;stroke-dasharray:none"
         d="M 175,24.679487 A 2.179487,2.179487 0 0 0 177.17949,22.5 2.179487,2.179487 0 0 0 175,20.320513 2.179487,2.179487 0 0 0 172.82051,22.5 2.179487,2.179487 0 0 0 175,24.679487 Z"
         inkscape:transform-center-x="4.8861044" />
      <g
         aria-label="Pulses"
         id="text733"
         style="font-size:10.5833px;line-height:1.25;letter-spacing:0px;word-spacing:0px;fill:#000000;stroke:#000000;stroke-width:0.26431814;stroke-opacity:1;stroke-dasharray:none"
         transform="rotate(-90,25,25)">
        <path
           d="m 15.477809,6.9124839 q -0.146756,-0.1693336 -0.248356,-0.1693336 -0.112889,0 -0.304801,0.2935115 -0.169333,0.2596447 -0.372533,1.1176011 -0.2032,0.8466675 -0.225778,1.3208013 l -0.01129,0.3725338 0.451556,0.056444 q 0.361245,0.045156 0.395111,0.045156 0.07902,0 0.237067,-0.045156 0.564445,-0.1693336 0.564445,-1.1514679 0,-0.2032002 -0.01129,-0.3160892 Q 15.86163,7.3414616 15.477807,6.9124834 Z M 14.687586,6.664128 q 0.04516,-0.1016001 0.259644,-0.2822225 0.214489,-0.1919113 0.327378,-0.1919113 0.09031,0 0.259645,0.112889 0.180622,0.1016001 0.3048,0.225778 0.09031,0.1016001 0.259645,0.4741339 0.169334,0.3725337 0.169334,0.4854227 0,0.045156 0.1016,0.451556 0.09031,0.3838226 0.09031,0.7337785 0,0.564445 -0.191911,1.016001 -0.180623,0.4402667 -0.508001,0.5870227 -0.214489,0.09031 -0.643467,0.09031 -0.316089,0 -0.508001,-0.04515 -0.248356,-0.04516 -0.316089,-0.04516 -0.03387,0 -0.04516,0.01129 -0.06773,0.04516 -0.1016,0.485423 -0.04516,0.541867 -0.07902,0.778934 -0.03387,0.237067 -0.03387,0.609601 0,0.699911 0.07902,0.835378 0.03387,0.06773 0.03387,0.124178 0,0.191911 -0.169333,0.225778 -0.03387,0 -0.180623,0.05645 -0.135466,0.04516 -0.2032,0.04516 -0.03387,0 -0.05644,-0.01129 -0.07902,-0.03387 -0.135467,-0.383822 -0.05645,-0.361245 -0.05645,-0.745068 0,-0.293511 0.03387,-0.462845 0.02258,-0.169333 0.07902,-0.428978 0.06773,-0.270934 0.101601,-0.451556 0.135466,-0.654756 0.135466,-2.5174247 0,-0.5305783 -0.03387,-0.5870228 -0.02258,-0.045156 -0.02258,-0.1241779 0,-0.3725337 0.146756,-0.4741338 0.03387,-0.033867 0.1016,-0.033867 0.09031,0 0.282222,0.1241779 0.214489,0.1580446 0.214489,-0.045156 0,-0.033867 0.124178,-0.2822225 0.09031,-0.1467557 0.180623,-0.3612449 z"
           style="font-size:11.2889px;font-family:Myfont;-inkscape-font-specification:'Myfont, Normal';fill:#000000;stroke:#000000;stroke-opacity:1;stroke-width:0.26431814;stroke-dasharray:none"
           id="path9125" />
        <path
           d="m 18.017814,8.9106192 q 0.04515,-0.112889 0.135466,-0.112889 0.07902,0 0.112889,0.112889 0.01129,0.033867 0.01129,0.1354668 0,0.2032002 -0.124178,0.9031121 -0.09031,0.4854229 -0.09031,0.9595569 0,0.349955 0.01129,0.6096 0.02258,0.959557 0.04516,1.185335 0.05644,0.519289 0.316089,0.519289 0.2032,0 0.496712,-0.338667 1.456268,-1.772357 1.456268,-3.0028473 0,-0.067733 -0.01129,-0.1919114 0,-0.1241779 0,-0.1580446 0,-0.1919113 0.1016,-0.2935114 0.09031,-0.090311 0.2032,-0.090311 0.158045,0 0.225778,0.1241779 0.07902,0.1241779 0.07902,0.5983118 0,0.440267 -0.06773,0.824089 -0.06773,0.383823 -0.06773,1.083735 0,0.790223 0.07902,1.049868 0.07902,0.191911 0.07902,0.349956 0,0.09031 -0.09031,0.248355 -0.07902,0.146756 -0.135467,0.146756 -0.05644,0 -0.191911,-0.135467 -0.135467,-0.146755 -0.191911,-0.259644 -0.07902,-0.146756 -0.07902,-0.959557 l -0.01129,-0.790223 q -0.01129,0.01129 -0.1016,0.158045 -0.07902,0.146755 -0.1016,0.169333 -0.04515,0.04516 -0.270933,0.417689 -0.21449,0.372534 -0.21449,0.406401 0,0.05644 -0.293511,0.428978 -0.293511,0.361245 -0.372534,0.4064 -0.124178,0.06773 -0.146755,0.124178 -0.02258,0.06773 -0.270934,0.146756 l -0.259645,0.09031 -0.2032,-0.112889 q -0.225778,-0.112889 -0.237067,-0.124178 -0.05644,-0.04516 -0.124178,-0.8128 -0.03387,-0.496712 -0.03387,-1.388535 0,-1.253068 0.05644,-1.5127126 0.169334,-0.6434674 0.282223,-0.914401 z"
           style="font-size:11.2889px;font-family:Myfont;-inkscape-font-specification:'Myfont, Normal';fill:#000000;stroke:#000000;stroke-opacity:1;stroke-width:0.26431814;stroke-dasharray:none"
           id="path9127" />
        <path
           d="m 22.567242,6.5738168 q 0.112889,-0.056445 0.2032,-0.056445 0.146756,0 0.146756,0.2032002 0,0.124178 -0.02258,0.2032003 -0.03387,0.1467557 -0.05644,1.8513796 -0.02258,1.6143131 -0.06773,2.0432911 -0.05644,0.428979 -0.05644,0.993424 0,0.733778 0.06773,0.948267 0.06773,0.225778 0.135467,0.304801 0.07902,0.06773 0.225778,0.06773 h 0.09031 q 0.248356,-0.01129 0.304801,0.07902 0.04516,0.06773 0.02258,0.112889 -0.01129,0.04516 -0.124178,0.169334 -0.169333,0.191911 -0.395111,0.259644 -0.191911,0.05645 -0.225778,0.05645 -0.05645,0 -0.158045,-0.06773 -0.316089,-0.191912 -0.395111,-0.553157 -0.07902,-0.316089 -0.07902,-0.767645 0,-0.316089 0.05644,-1.072445 0.06773,-0.857957 0.09031,-2.5964469 0.02258,-1.3095124 0.05645,-1.7046239 0.04515,-0.3951116 0.180622,-0.4741339 z"
           style="font-size:11.2889px;font-family:Myfont;-inkscape-font-specification:'Myfont, Normal';fill:#000000;stroke:#000000;stroke-opacity:1;stroke-width:0.26431814;stroke-dasharray:none"
           id="path9129" />
        <path
           d="m 26.586095,8.820308 q 0.02258,-0.022578 0.361245,-0.022578 0.688623,0 0.869245,0.3273781 0.05644,0.112889 0.05644,0.1580446 0,0.067733 -0.112889,0.067733 -0.06773,0 -0.485422,-0.079022 -0.214489,-0.056445 -0.349956,-0.056445 -0.09031,0 -0.191911,0.033867 -0.293512,0.1016001 -0.711201,0.4628449 -0.146756,0.1354669 -0.146756,0.2032003 0,0.056445 0.01129,0.1016001 0.07902,0.383823 0.745067,0.778935 0.982135,0.587022 0.982135,1.264356 0,0.237067 -0.135467,0.440268 -0.07902,0.135466 -0.508001,0.553156 -0.428978,0.4064 -0.541867,0.462845 -0.146755,0.07902 -0.428978,0.112889 -0.158045,0.02258 -0.225778,0.02258 -0.654756,0 -0.880534,-0.530578 -0.05645,-0.146756 -0.05645,-0.225778 0,-0.124178 0.135467,-0.180622 0.09031,-0.02258 0.124178,0 0.03387,0.01129 0.124178,0.1016 0.124178,0.146755 0.124178,0.180622 0,0.05645 0.02258,0.07902 0.03387,0.02258 0.169333,0.09031 0.237067,0.1016 0.361245,0.1016 0.158045,0 0.428978,-0.158045 0.349956,-0.2032 0.51929,-0.440267 0.270933,-0.372534 0.270933,-0.609601 0,-0.214489 -0.214489,-0.485422 -0.191911,-0.225778 -0.496712,-0.395112 -0.451556,-0.248356 -0.756356,-0.632178 -0.237067,-0.304801 -0.237067,-0.5531568 0,-0.2257781 0.2032,-0.5644451 0.124178,-0.2032002 0.304801,-0.2483558 0.180622,-0.056444 0.237067,-0.1580446 0.05644,-0.1241779 0.07902,-0.1354668 0.02258,-0.022578 0.180622,-0.033867 0.135467,0 0.169334,-0.033867 z"
           style="font-size:11.2889px;font-family:Myfont;-inkscape-font-specification:'Myfont, Normal';fill:#000000;stroke:#000000;stroke-opacity:1;stroke-width:0.26431814;stroke-dasharray:none"
           id="path9131" />
        <path
           d="m 31.440322,9.6895533 q 0.02258,-0.1016001 0.01129,-0.1467557 0,-0.056444 -0.02258,-0.056444 -0.01129,-0.011289 -0.06773,-0.011289 -0.248356,0 -0.553157,0.2483558 -0.03387,0.022578 -0.124177,0.090311 -0.07902,0.067733 -0.112889,0.090311 -0.270934,0.1806226 -0.62089,0.8466676 -0.135467,0.270934 -0.135467,0.3048 0,0.02258 0.05645,0.07902 0.07902,0.07902 0.146755,0.07902 0.05645,0 0.02258,0.169333 0,0.02258 -0.01129,0.05645 0,0.02258 0,0.03387 0,0.158044 0.1016,0.158044 0.06773,0 0.124178,-0.04516 0.304801,-0.191912 0.72249,-0.857957 0.417689,-0.666045 0.462845,-1.0385788 z m -0.3048,-0.5983117 q 0.3048,-0.112889 0.485422,-0.112889 0.225778,0 0.338667,0.112889 0.1016,0.1016001 0.1016,0.1919113 0,0.079022 -0.06773,0.3273781 -0.03387,0.1241779 -0.09031,0.2596448 -0.05645,0.1354672 -0.1016,0.2370672 -0.03387,0.09031 -0.135467,0.248355 -0.09031,0.146756 -0.135467,0.21449 -0.03387,0.05644 -0.158045,0.237066 -0.124177,0.169334 -0.146755,0.21449 -0.327378,0.519289 -0.699912,0.8128 -0.361245,0.293512 -0.666045,0.293512 h -0.2032 v 0.2032 q 0,0.169334 0.06773,0.338667 0.06773,0.158045 0.158045,0.2032 0.07902,0.04516 0.237067,0.04516 0.327378,0 0.575733,-0.180623 0.72249,-0.541867 0.970846,-0.801511 0.124178,-0.135467 0.191911,-0.169334 0.06773,-0.03387 0.214489,-0.03387 0.293512,0 0.293512,0.214489 v 0.05645 q -0.01129,0.146756 -0.1016,0.158045 -0.31609,0.05644 -0.711201,0.383822 -0.112889,0.09031 -0.564445,0.417689 -0.05644,0.04516 -0.146756,0.101601 -0.09031,0.05644 -0.146756,0.1016 -0.04515,0.03387 -0.05644,0.04516 -0.05645,0.05644 -0.05645,0.03387 0,-0.03387 -0.06773,0.03387 -0.180622,0.180622 -0.564445,0.180622 -0.158045,0 -0.158045,-0.06773 0,-0.04516 -0.09031,-0.04516 -0.112889,0 -0.259645,-0.169333 -0.282222,-0.304801 -0.3048,-0.846668 v -0.06773 q 0,-0.203201 0.03387,-0.451556 0.03387,-0.248356 0.05644,-0.248356 0.04516,0 0.1016,-0.304801 0.180623,-0.801511 0.936979,-1.5578678 0.428978,-0.4289782 0.869246,-0.6096006 z"
           style="font-size:11.2889px;font-family:Myfont;-inkscape-font-specification:'Myfont, Normal';fill:#000000;stroke:#000000;stroke-opacity:1;stroke-width:0.26431814;stroke-dasharray:none"
           id="path9133" />
        <path
           d="m 35.368858,8.820308 q 0.02258,-0.022578 0.361245,-0.022578 0.688623,0 0.869245,0.3273781 0.05645,0.112889 0.05645,0.1580446 0,0.067733 -0.112889,0.067733 -0.06773,0 -0.485423,-0.079022 -0.214489,-0.056445 -0.349956,-0.056445 -0.09031,0 -0.191911,0.033867 -0.293511,0.1016001 -0.711201,0.4628449 -0.146755,0.1354669 -0.146755,0.2032003 0,0.056445 0.01129,0.1016001 0.07902,0.383823 0.745068,0.778935 0.982134,0.587022 0.982134,1.264356 0,0.237067 -0.135467,0.440268 -0.07902,0.135466 -0.508,0.553156 -0.428978,0.4064 -0.541867,0.462845 -0.146756,0.07902 -0.428979,0.112889 -0.158044,0.02258 -0.225778,0.02258 -0.654756,0 -0.880534,-0.530578 -0.05644,-0.146756 -0.05644,-0.225778 0,-0.124178 0.135467,-0.180622 0.09031,-0.02258 0.124177,0 0.03387,0.01129 0.124178,0.1016 0.124178,0.146755 0.124178,0.180622 0,0.05645 0.02258,0.07902 0.03387,0.02258 0.169334,0.09031 0.237066,0.1016 0.361244,0.1016 0.158045,0 0.428979,-0.158045 0.349956,-0.2032 0.519289,-0.440267 0.270934,-0.372534 0.270934,-0.609601 0,-0.214489 -0.214489,-0.485422 -0.191912,-0.225778 -0.496712,-0.395112 -0.451556,-0.248356 -0.756356,-0.632178 -0.237067,-0.304801 -0.237067,-0.5531568 0,-0.2257781 0.2032,-0.5644451 0.124178,-0.2032002 0.3048,-0.2483558 0.180623,-0.056444 0.237067,-0.1580446 0.05644,-0.1241779 0.07902,-0.1354668 0.02258,-0.022578 0.180623,-0.033867 0.135467,0 0.169333,-0.033867 z"
           style="font-size:11.2889px;font-family:Myfont;-inkscape-font-specification:'Myfont, Normal';fill:#000000;stroke:#000000;stroke-opacity:1;stroke-width:0.26431814;stroke-dasharray:none"
           id="path9135" />
      </g>
      <g
         aria-label="1"
         id="text1212"
         style="font-size:6.35px;line-height:1.25;font-family:Myfont;-inkscape-font-specification:'Myfont, Normal';letter-spacing:0px;word-spacing:0px;fill:#000000;stroke:#000000;stroke-width:0.26431814;stroke-opacity:1;stroke-dasharray:none"
         transform="rotate(-90,25,25)">
        <path
           d="m 22.490475,18.019196 q 0.05715,-0.04445 0.08255,-0.0381 0.0254,0 0.06985,0.04445 0.0635,0.0508 0.0762,0.0508 0.0508,0 0.0508,0.19685 0,0.24765 -0.0635,0.59055 -0.0381,0.24765 -0.05715,0.8636 -0.03175,0.90805 -0.127,1.3843 -0.04445,0.22225 -0.04445,0.3175 0,0.06985 0.0127,0.0889 0.01905,0.0127 0.08255,0.0127 0.37465,-0.0127 0.43815,-0.0635 0.03175,-0.01905 0.0635,0.0064 0.03175,0.01905 0.05715,0.01905 0.03175,-0.0064 0.0762,-0.0127 0.04445,-0.0127 0.05715,-0.0127 0.0127,0 0.0381,-0.0254 h 0.0064 q 0.03175,0 0.0889,0.0635 0.0635,0.05715 0.0635,0.09525 0,0.06985 -0.1016,0.09525 -0.09525,0.0254 -0.57785,0.0762 -0.2667,0.0254 -0.5715,0.09525 -0.29845,0.0635 -0.3556,0.1016 -0.06985,0.0508 -0.1524,0.0508 -0.0889,0 -0.127,-0.05715 -0.0381,-0.05715 -0.0381,-0.127 0,-0.09525 0.05715,-0.1524 0.0508,-0.0508 0.1143,-0.0508 0.0508,0 0.09525,0.0064 0.04445,0.0064 0.1143,0.0064 0.1524,0 0.19685,-0.0889 0.03175,-0.0635 0.09525,-0.32385 0.0635,-0.2667 0.0762,-0.40005 0,-0.0381 0.0381,-0.3175 0.03175,-0.23495 0.0508,-0.7747 0.0254,-0.5969 0.04445,-0.6096 0.0254,-0.0127 0.0508,-0.3175 0.0127,-0.1016 0.0127,-0.23495 0,-0.1016 -0.01905,-0.1016 -0.01905,0 -0.05715,0.0635 -0.0254,0.0381 -0.19685,0.2413 -0.1651,0.2032 -0.1905,0.254 -0.05715,0.1016 -0.13335,0.1016 -0.0762,0 -0.127,-0.0889 -0.0508,-0.06985 -0.0127,-0.1397 0.0381,-0.06985 0.08255,-0.08255 0.0508,-0.0127 0.20955,-0.18415 0.1651,-0.17145 0.1651,-0.2159 0,-0.03175 0.0381,-0.04445 0.03175,-0.01905 0.127,-0.1778 0.09525,-0.1651 0.12065,-0.18415 z"
           id="path9138"
           style="fill:#000000;stroke:#000000;stroke-opacity:1;stroke-width:0.26431814;stroke-dasharray:none" />
      </g>
      <g
         aria-label="1-2"
         transform="rotate(-91.992783,26.018435,25.527076)"
         id="text1212-0"
         style="font-size:6.35px;line-height:1.25;font-family:Myfont;-inkscape-font-specification:'Myfont, Normal';letter-spacing:0px;word-spacing:0px;fill:#000000;stroke:#000000;stroke-width:0.26431814;stroke-opacity:1;stroke-dasharray:none">
        <path
           d="m 27.964145,31.4203 q -0.0067,-0.07209 0.01229,-0.09008 0.01366,-0.02141 0.07505,-0.03497 0.07698,-0.0262 0.08381,-0.03691 0.02733,-0.04282 0.193268,0.06307 0.208765,0.133221 0.463664,0.371211 0.188269,0.165338 0.697257,0.512742 0.74839,0.515242 1.098622,0.85173 0.163441,0.157028 0.243735,0.208267 0.05888,0.03758 0.08177,0.03712 0.02095,-0.0092 0.05511,-0.06276 0.190834,-0.322656 0.18217,-0.403513 10e-4,-0.03701 0.03951,-0.05011 0.03314,-0.01652 0.0468,-0.03793 0.01173,-0.03018 0.03029,-0.07107 0.01321,-0.0443 0.02004,-0.05501 0.0068,-0.01071 -9.17e-4,-0.04578 l 0.0034,-0.0054 q 0.01708,-0.02676 0.101353,-0.04078 0.08234,-0.02279 0.114453,-0.0023 0.05888,0.03758 0.02564,0.136886 -0.02983,0.09396 -0.246614,0.528109 -0.122057,0.238487 -0.227139,0.533003 -0.107019,0.285747 -0.105644,0.354419 0.0052,0.08621 -0.03916,0.155798 -0.04782,0.07494 -0.116495,0.07632 -0.06867,0.0014 -0.127554,-0.0362 -0.08029,-0.05124 -0.09773,-0.130159 -0.0155,-0.07015 0.01866,-0.12368 0.02733,-0.04282 0.05659,-0.07688 0.02926,-0.03406 0.06684,-0.09294 0.08198,-0.128471 0.03095,-0.213764 -0.03645,-0.06092 -0.221761,-0.254506 -0.190664,-0.196999 -0.296244,-0.279439 -0.03212,-0.0205 -0.247151,-0.202914 -0.180979,-0.153154 -0.625731,-0.459566 -0.489513,-0.342509 -0.489971,-0.365399 0.003,-0.02824 -0.24032,-0.21362 -0.07882,-0.06536 -0.191226,-0.137095 -0.08565,-0.05465 -0.0959,-0.0386 -0.01025,0.01606 0.02279,0.08234 0.01845,0.04191 0.09752,0.295746 0.08248,0.248486 0.11164,0.297225 0.0549,0.102831 0.01391,0.167066 -0.04099,0.06424 -0.143259,0.05924 -0.08621,0.0052 -0.124597,-0.06444 -0.03839,-0.06969 -0.02518,-0.113995 0.01662,-0.04966 -0.04251,-0.275709 -0.05571,-0.231407 -0.09319,-0.255318 -0.02676,-0.01708 -0.01698,-0.05603 0.001,-0.03701 -0.08156,-0.202705 -0.08794,-0.169108 -0.09033,-0.200768 z"
           id="path9141"
           style="fill:#000000;stroke:#000000;stroke-opacity:1;stroke-width:0.26431814;stroke-dasharray:none" />
        <path
           d="m 31.751163,29.364022 q 0.07184,-0.0944 0.127473,-0.136638 0.126441,-0.09599 0.261675,0.0086 0.01274,0.0063 0.0281,0.02651 0.0384,0.05058 -0.07774,0.170638 -0.08579,0.09702 -0.12832,0.209034 -0.03503,0.09038 -0.08804,0.146568 -0.05179,0.04729 -0.235086,0.194418 -0.06575,0.04992 -0.142832,0.116408 -0.07708,0.06649 -0.128876,0.113786 -0.05058,0.0384 -0.06575,0.04992 -0.07203,0.06265 -0.166241,0.02256 -0.07258,-0.0326 -0.110979,-0.08317 -0.04991,-0.06575 -0.04401,-0.141985 0.0059,-0.07624 0.06659,-0.122312 0.04046,-0.03072 0.06837,-0.03596 0.05198,-0.01554 0.168306,-0.103857 0.354033,-0.268775 0.467365,-0.434541 z"
           id="path9143"
           style="fill:#000000;stroke:#000000;stroke-opacity:1;stroke-width:0.26431814;stroke-dasharray:none" />
        <path
           d="m 35.380512,26.282619 q 0.02962,-0.01308 0.06544,-0.02754 0.03582,-0.01446 0.05441,-0.01859 0.01722,-0.01033 0.02962,-0.01308 0.031,-0.0069 0.05647,0.01998 0.01928,0.02824 0.09092,-6.71e-4 0.06681,-0.02134 0.101243,0.01655 0.0241,0.02067 0.149448,0.05788 0.12397,0.03102 0.13498,0.08061 0.01514,0.06819 0.06541,0.08955 0.04408,0.02274 0.07848,0.177714 l 0.02752,0.123981 q 0.04541,0.263113 0.02129,0.30099 -0.03169,0.03305 -0.07719,0.238294 -0.05584,0.246563 -0.161281,0.56268 -0.09924,0.314741 -0.135755,0.35537 -0.03031,0.03925 -0.124028,0.261702 -0.09509,0.21625 -0.130932,0.347795 -0.03515,0.105372 -0.117147,0.292697 -0.307317,0.666653 -0.277039,0.803032 0.01376,0.06199 0.152224,-0.0468 l 0.163258,-0.114301 q 0.170833,-0.109477 0.305847,-0.204499 0.135015,-0.09502 0.154306,-0.125322 0.02894,-0.04545 0.08128,-0.04406 l 0.03099,-0.0069 q 0.05579,-0.01239 0.222484,-0.08192 0.171515,-0.07711 0.227307,-0.08949 l 0.031,-0.0069 q 0.103314,-0.0034 0.151542,-0.07918 0.0496,-0.06955 0.126051,-0.0475 0.07645,0.02206 0.129487,-0.0027 l 0.0124,-0.0028 q 0.05579,-0.01239 0.119147,0.03859 0.06336,0.05098 0.07849,0.11917 0.01239,0.05579 -0.02275,0.10262 -0.02411,0.03788 -0.259679,0.09017 -0.08059,0.01789 -0.184595,0.04749 l -0.105384,0.0234 q -0.09161,0.02684 -0.44498,0.222379 -0.348547,0.187961 -0.477363,0.281606 -0.14466,0.110172 -0.243163,0.164564 -0.239716,0.150789 -0.383023,0.384248 -0.03858,0.0606 -0.07302,0.08126 -0.02962,0.01308 -0.08541,0.02547 -0.05579,0.01239 -0.107454,0.04337 -0.06269,0.03993 -0.08886,0.03924 -0.01997,-0.0021 -0.05923,-0.03238 -0.06473,-0.05718 -0.08262,-0.137767 -0.04129,-0.185972 0.117864,-0.435958 0.106101,-0.166658 0.169491,-0.29131 0.06959,-0.126028 0.146766,-0.305777 0.0758,-0.185949 0.119899,-0.280299 0.159857,-0.334703 0.551279,-1.384287 0.24395,-0.659089 0.173077,-1.007613 -0.0234,-0.105384 -0.05025,-0.138449 -0.02066,-0.03444 -0.08746,-0.07165 -0.104678,-0.06132 -0.265854,-0.02554 -0.08059,0.01789 -0.228683,0.08329 -0.20251,0.08399 -0.258302,0.09637 -0.08059,0.01789 -0.08886,0.03924 -0.0055,0.03375 -0.210109,0.196254 -0.149483,0.117747 -0.245245,0.243081 -0.08956,0.123958 -0.252855,0.413891 -0.06959,0.126028 -0.137779,0.141167 -0.06819,0.01514 -0.170798,-0.06615 -0.09503,-0.07647 -0.106043,-0.126063 -0.01101,-0.04959 0.04136,-0.165293 0.05857,-0.117077 0.1185,-0.16941 0.06131,-0.04613 0.188065,-0.17835 0.132956,-0.133592 0.240422,-0.235506 0.107466,-0.101914 0.144661,-0.110172 0.04339,-0.0096 0.09851,-0.112936 0.0503,-0.09573 0.150859,-0.111548 l 0.0248,-0.0055 q 0.204569,-0.04542 0.388494,-0.18382 0.08955,-0.06541 0.208027,-0.117736 z"
           id="path9145"
           style="fill:#000000;stroke:#000000;stroke-opacity:1;stroke-width:0.26431814;stroke-dasharray:none" />
      </g>
      <g
         aria-label="3"
         id="text1212-4"
         style="font-size:6.35px;line-height:1.25;font-family:Myfont;-inkscape-font-specification:'Myfont, Normal';letter-spacing:0px;word-spacing:0px;fill:#000000;stroke:#000000;stroke-width:0.26431814;stroke-opacity:1;stroke-dasharray:none"
         transform="rotate(-90,25,25)">
        <path
           d="m 22.891583,68.190959 q 0.127,-0.03175 0.14605,-0.03175 0.0064,0 0.10795,0.0254 0.127,0.03175 0.127,0.1397 0,0.0635 -0.0635,0.1905 -0.03175,0.0635 -0.28575,0.3556 -0.0508,0.05715 -0.0762,0.09525 -0.01905,0.0381 -0.05715,0.127 -0.03175,0.08255 -0.04445,0.1143 -0.0762,0.1524 -0.1524,0.3937 -0.06985,0.2413 -0.06985,0.33655 0,0.03175 0.0064,0.0381 0.0064,0.0127 0.1143,-0.0127 0.08255,-0.0254 0.18415,-0.0254 0.22225,0 0.45085,0.20955 0.10795,0.1016 0.1397,0.1905 0.0381,0.08255 0.0381,0.26035 0,0.127 -0.06985,0.31115 -0.0635,0.18415 -0.14605,0.3048 -0.08255,0.10795 -0.08255,0.127 0,0.01905 -0.06985,0.127 -0.0762,0.09525 -0.17145,0.2413 -0.19685,0.2794 -0.4953,0.4953 -0.2921,0.2159 -0.4699,0.2159 -0.15875,0 -0.3175,-0.1016 -0.15875,-0.1016 -0.1905,-0.2286 0,-0.0063 -0.0064,-0.0127 0,-0.0127 0,-0.01905 0,-0.04445 0.03175,-0.0762 0.03175,-0.03175 0.0762,-0.03175 0.0635,0 0.28575,0.1524 0.0762,0.04445 0.15875,0.04445 0.06985,0 0.0762,-0.03175 0.0127,-0.03175 0.08255,-0.04445 0.0635,-0.0127 0.18415,-0.12065 0.1397,-0.12065 0.29845,-0.28575 0.15875,-0.17145 0.15875,-0.19685 0,-0.03175 0.0508,-0.08255 0.05715,-0.05715 0.09525,-0.14605 0.0508,-0.09525 0.0762,-0.10795 0.03175,-0.01905 0.08255,-0.2032 0.0508,-0.1905 0.0508,-0.2794 0,-0.23495 -0.18415,-0.3429 -0.09525,-0.05715 -0.2032,-0.05715 -0.18415,0 -0.2921,0.1524 -0.0635,0.0889 -0.1651,0.12065 -0.0762,0.01905 -0.10795,0.01905 -0.0381,0 -0.1016,-0.04445 -0.09525,-0.0762 -0.09525,-0.12065 0,-0.03175 0.08255,-0.13335 0.09525,-0.12065 0.09525,-0.14605 0,-0.0127 0.0508,-0.127 0.03175,-0.06985 0.0635,-0.18415 0.03175,-0.12065 0.05715,-0.18415 0.0635,-0.14605 0.0889,-0.26035 0.03175,-0.1397 0.13335,-0.381 0.10795,-0.24765 0.17145,-0.32385 0.04445,-0.0508 0.04445,-0.08255 0,-0.03175 -0.0889,-0.03175 h -0.0381 q -0.17145,0 -0.5715,0.22225 -0.3937,0.2159 -0.4191,0.2667 -0.0254,0.04445 -0.1143,0.1016 -0.0889,0.05715 -0.1397,0.05715 -0.08255,0 -0.1397,-0.06985 -0.05715,-0.06985 -0.05715,-0.1651 0,-0.04445 0.0064,-0.06985 0.0063,-0.04445 0.08255,-0.0762 0.0762,-0.0381 0.14605,-0.0381 0.0508,0 0.2032,-0.06985 0.1524,-0.06985 0.18415,-0.0762 0.3556,-0.127 0.40005,-0.19685 0.0127,-0.0254 0.06985,-0.0254 0.05715,0 0.0762,-0.01905 0.01905,-0.01905 0.17145,-0.05715 0.15875,-0.04445 0.1778,-0.05715 0.08255,-0.04445 0.15875,-0.05715 z"
           id="path9148"
           style="fill:#000000;stroke:#000000;stroke-opacity:1;stroke-width:0.26431814;stroke-dasharray:none" />
      </g>
      <g
         aria-label="4"
         id="text1212-31"
         style="font-size:6.35px;line-height:1.25;font-family:Myfont;-inkscape-font-specification:'Myfont, Normal';letter-spacing:0px;word-spacing:0px;fill:#000000;stroke:#000000;stroke-width:0.26431814;stroke-opacity:1;stroke-dasharray:none"
         transform="rotate(-90,25,25)">
        <path
           d="m 23.354075,93.075949 q 0,-0.14605 0.0889,-0.14605 0.0381,0 0.0762,0.0381 0.03175,0.03175 0.03175,0.0889 0,0.0889 -0.12065,0.4953 -0.1016,0.33655 -0.1016,0.3937 0,0.04445 -0.0254,0.04445 -0.0254,0 -0.0381,0.06985 -0.0508,0.22225 -0.0508,0.2794 0,0.0889 0.1143,0.1143 0.05715,0.0127 0.0762,0.0381 0.0254,0.01905 0.0381,0.06985 0.0127,0.05715 0,0.13335 -0.0064,0.0381 -0.03175,0.04445 -0.01905,0 -0.09525,-0.0127 -0.0127,0 -0.0254,0 -0.0127,-0.0063 -0.01905,-0.0063 -0.1778,0 -0.1778,0.1778 0,0.0635 -0.0381,0.2286 -0.04445,0.18415 -0.08255,0.4445 -0.01905,0.17145 -0.03175,0.23495 -0.0127,0.0635 -0.0381,0.1397 -0.01905,0.06985 -0.04445,0.2159 -0.0508,0.27305 -0.0508,0.4064 0,0.10795 0.0254,0.13335 0.01905,0.01905 0.01905,0.0508 0,0.1143 -0.12065,0.23495 -0.08255,0.08255 -0.12065,0.08255 -0.0127,0 -0.03175,-0.0063 -0.0127,-0.0063 -0.01905,-0.0063 -0.0063,-0.0063 -0.01905,-0.0063 -0.09525,-0.0381 -0.1016,-0.05715 -0.0064,-0.0127 -0.0064,-0.05715 0,-0.1397 0.05715,-0.4572 0.05715,-0.3175 0.127,-0.5588 0.0127,-0.0381 0.0762,-0.37465 0.0635,-0.3429 0.09525,-0.41275 0.0635,-0.12065 0.0064,-0.13335 -0.01905,0 -0.04445,0.01905 -0.0889,0.0762 -0.3302,0.1016 -0.2413,0.0254 -0.4826,0.15875 -0.14605,0.08255 -0.22225,0.08255 -0.05715,0 -0.14605,-0.0508 -0.12065,-0.06985 -0.12065,-0.15875 0,-0.0381 0.0381,-0.0889 0.0508,-0.0762 0.0508,-0.1143 0,-0.04445 0.01905,-0.0635 0.05715,-0.06985 0.09525,-0.38735 0.0127,-0.127 0.05715,-0.22225 0.03175,-0.0635 0.03175,-0.127 0,-0.05715 0.08255,-0.22225 0.05715,-0.1143 0.05715,-0.1778 0,-0.03175 -0.0064,-0.0508 -0.03175,-0.0635 0.01905,-0.1778 0.0508,-0.12065 0.1397,-0.13335 h 0.0381 q 0.12065,0 0.2413,0.12065 0.0508,0.0635 0.0508,0.09525 0,0.0254 -0.01905,0.09525 -0.01905,0.09525 -0.10795,0.2032 -0.22225,0.22225 -0.3048,0.8128 -0.0127,0.1016 -0.0127,0.1143 0,0.0635 0.04445,0.0635 0.03175,0 0.0762,-0.01905 0.0762,-0.0254 0.2413,-0.0254 0.0635,0 0.1016,0 0.0381,-0.0063 0.0762,-0.0127 0.0381,-0.0127 0.0508,-0.01905 0.01905,-0.0063 0.0635,-0.0254 0.04445,-0.01905 0.0762,-0.03175 0.24765,-0.0889 0.2794,-0.2667 0.0064,-0.06985 0.0508,-0.2413 0.04445,-0.17145 0.0508,-0.2159 0.0127,-0.06985 0.0381,-0.06985 0.0127,0 0.0381,-0.1524 0.0063,-0.09525 0.05715,-0.2286 0.05715,-0.13335 0.0635,-0.20955 0.0127,-0.10795 0.06985,-0.1778 0.05715,-0.06985 0.05715,-0.12065 z"
           id="path9151"
           style="fill:#000000;stroke:#000000;stroke-opacity:1;stroke-width:0.26431814;stroke-dasharray:none" />
      </g>
      <g
         aria-label="2"
         id="text1212-3"
         style="font-size:6.35px;line-height:1.25;font-family:Myfont;-inkscape-font-specification:'Myfont, Normal';letter-spacing:0px;word-spacing:0px;fill:#000000;stroke:#000000;stroke-width:0.26431814;stroke-opacity:1;stroke-dasharray:none"
         transform="rotate(-90,25,25)">
        <path
           d="m 22.651693,43.170497 q 0.03175,-0.0063 0.06985,-0.0127 0.0381,-0.0064 0.05715,-0.0064 0.01905,-0.0063 0.03175,-0.0063 0.03175,0 0.0508,0.03175 0.0127,0.03175 0.0889,0.01905 0.06985,-0.0064 0.09525,0.0381 0.01905,0.0254 0.13335,0.0889 0.1143,0.05715 0.1143,0.10795 0,0.06985 0.04445,0.1016 0.0381,0.03175 0.0381,0.1905 v 0.127 q -0.0127,0.2667 -0.04445,0.29845 -0.0381,0.0254 -0.127,0.2159 -0.10795,0.2286 -0.2794,0.51435 -0.1651,0.28575 -0.20955,0.3175 -0.0381,0.03175 -0.1778,0.2286 -0.1397,0.1905 -0.2032,0.31115 -0.05715,0.09525 -0.1778,0.26035 -0.4445,0.5842 -0.4445,0.7239 0,0.0635 0.15875,-0.0127 l 0.18415,-0.0762 q 0.1905,-0.06985 0.3429,-0.13335 0.1524,-0.0635 0.1778,-0.0889 0.0381,-0.0381 0.0889,-0.0254 h 0.03175 q 0.05715,0 0.23495,-0.03175 0.18415,-0.0381 0.2413,-0.0381 h 0.03175 q 0.1016,0.01905 0.1651,-0.04445 0.0635,-0.05715 0.13335,-0.01905 0.06985,0.0381 0.127,0.0254 h 0.0127 q 0.05715,0 0.10795,0.0635 0.0508,0.0635 0.0508,0.13335 0,0.05715 -0.04445,0.09525 -0.03175,0.03175 -0.27305,0.03175 -0.08255,0 -0.1905,0.0063 h -0.10795 q -0.09525,0.0064 -0.4826,0.12065 -0.381,0.10795 -0.52705,0.17145 -0.1651,0.0762 -0.27305,0.10795 -0.2667,0.09525 -0.4572,0.2921 -0.0508,0.0508 -0.0889,0.0635 -0.03175,0.0063 -0.0889,0.0063 -0.05715,0 -0.1143,0.01905 -0.06985,0.0254 -0.09525,0.01905 -0.01905,-0.0063 -0.0508,-0.04445 -0.0508,-0.06985 -0.0508,-0.1524 0,-0.1905 0.20955,-0.40005 0.1397,-0.1397 0.2286,-0.24765 0.09525,-0.10795 0.20955,-0.2667 0.1143,-0.1651 0.1778,-0.24765 0.2286,-0.2921 0.8382,-1.2319 0.381,-0.59055 0.38735,-0.94615 0,-0.10795 -0.01905,-0.14605 -0.0127,-0.0381 -0.06985,-0.0889 -0.0889,-0.08255 -0.254,-0.08255 -0.08255,0 -0.2413,0.03175 -0.2159,0.0381 -0.27305,0.0381 -0.08255,0 -0.09525,0.01905 -0.0127,0.03175 -0.24765,0.14605 -0.17145,0.08255 -0.2921,0.18415 -0.1143,0.1016 -0.33655,0.34925 -0.09525,0.10795 -0.1651,0.10795 -0.06985,0 -0.1524,-0.1016 -0.0762,-0.09525 -0.0762,-0.14605 0,-0.0508 0.0762,-0.1524 0.08255,-0.1016 0.1524,-0.1397 0.06985,-0.03175 0.22225,-0.13335 0.15875,-0.1016 0.28575,-0.1778 0.127,-0.0762 0.1651,-0.0762 0.04445,0 0.12065,-0.0889 0.06985,-0.08255 0.17145,-0.0762 h 0.0254 q 0.20955,0 0.4191,-0.09525 0.1016,-0.04445 0.2286,-0.06985 z"
           id="path9154"
           style="fill:#000000;stroke:#000000;stroke-opacity:1;stroke-width:0.26431814;stroke-dasharray:none" />
      </g>
      <g
         aria-label="2-4"
         transform="rotate(-90,24.949699,25.653913)"
         id="text1212-7"
         style="font-size:6.35px;line-height:1.25;font-family:Myfont;-inkscape-font-specification:'Myfont, Normal';letter-spacing:0px;word-spacing:0px;fill:#000000;stroke:#000000;stroke-width:0.26431814;stroke-opacity:1;stroke-dasharray:none">
        <path
           d="m 27.484633,57.019778 q 0.0087,-0.03119 0.02025,-0.06805 0.01156,-0.03686 0.02017,-0.05385 0.0029,-0.01986 0.0087,-0.03119 0.01435,-0.02832 0.05129,-0.03096 0.03406,0.003 0.05718,-0.07069 0.02591,-0.06518 0.07704,-0.06774 0.03127,-0.0055 0.139579,-0.07876 0.102646,-0.07612 0.14796,-0.05316 0.0623,0.03157 0.11072,0.0063 0.04554,-0.01963 0.187147,0.05213 l 0.113284,0.05741 q 0.232153,0.13189 0.246122,0.174563 0.0054,0.04547 0.135171,0.210881 0.155111,0.199629 0.332494,0.481734 0.180254,0.276441 0.188481,0.330442 0.0111,0.04834 0.123536,0.261935 0.106774,0.210727 0.185688,0.321908 0.05913,0.09403 0.151856,0.276287 0.320167,0.660578 0.444778,0.723729 0.05664,0.0287 0.06044,-0.147345 l 0.01527,-0.198707 q 0.02381,-0.2015 0.03606,-0.366145 0.01225,-0.164645 0.0011,-0.198783 -0.01676,-0.05121 0.01753,-0.09078 l 0.01435,-0.02832 q 0.02583,-0.05098 0.07789,-0.223927 0.04926,-0.181484 0.07509,-0.232461 l 0.01435,-0.02832 q 0.06292,-0.08201 0.03498,-0.167361 -0.02227,-0.08248 0.04329,-0.127559 0.06556,-0.04508 0.08007,-0.101801 l 0.0057,-0.01133 q 0.02584,-0.05098 0.105441,-0.06759 0.07961,-0.01661 0.141911,0.01497 0.05098,0.02584 0.06487,0.08271 0.01397,0.04267 -0.09511,0.257911 -0.03732,0.07363 -0.08045,0.172795 l -0.0488,0.09629 q -0.03739,0.08783 -0.110539,0.485016 -0.07594,0.388648 -0.08532,0.547629 -0.0067,0.181714 -0.02714,0.292357 -0.0356,0.280952 0.05387,0.539863 0.02235,0.06828 0.01646,0.108003 -0.0087,0.03119 -0.03452,0.08217 -0.02584,0.05098 -0.03468,0.110566 -0.0089,0.07379 -0.02606,0.09357 -0.01427,0.01412 -0.06261,0.02522 -0.08527,0.01374 -0.158904,-0.02358 -0.169925,-0.08611 -0.262115,-0.367759 -0.06146,-0.187763 -0.117564,-0.31586 -0.05323,-0.133761 -0.143168,-0.307478 -0.0956,-0.176588 -0.140528,-0.270547 -0.157213,-0.335953 -0.71994,-1.304547 -0.354536,-0.606806 -0.668858,-0.773219 -0.09629,-0.0488 -0.138887,-0.04903 -0.03973,-0.0059 -0.110874,0.02212 -0.113821,0.04198 -0.188455,0.18925 -0.03732,0.07363 -0.08076,0.229591 -0.06361,0.209804 -0.08945,0.260782 -0.03732,0.07363 -0.02606,0.09357 0.02258,0.02568 0.01833,0.286924 -0.0039,0.190249 0.03222,0.343796 0.03896,0.147883 0.159392,0.458079 0.05323,0.133761 0.02166,0.196066 -0.03158,0.06231 -0.159518,0.09001 -0.119409,0.02491 -0.164722,0.0019 -0.04531,-0.02296 -0.101494,-0.136862 -0.05331,-0.119562 -0.05572,-0.199091 0.0033,-0.07666 -0.01848,-0.258526 -0.01886,-0.187532 -0.02942,-0.335261 -0.01056,-0.14773 0.0067,-0.181714 0.02009,-0.03965 -0.02476,-0.147807 -0.04206,-0.09962 0.0095,-0.187378 l 0.01148,-0.02266 q 0.09473,-0.186917 0.104491,-0.416892 0.0063,-0.11072 0.04103,-0.235485 z"
           id="path9157"
           style="fill:#000000;stroke:#000000;stroke-opacity:1;stroke-width:0.26431814;stroke-dasharray:none" />
        <path
           d="m 31.595447,54.477505 q 0.06997,-0.09579 0.12477,-0.139111 0.124534,-0.09845 0.261793,0.0035 0.01286,0.006 0.02861,0.02595 0.03938,0.04981 -0.07438,0.17213 -0.08387,0.09869 -0.124196,0.21151 -0.03325,0.09105 -0.08515,0.148266 -0.05086,0.0483 -0.231229,0.19899 -0.06476,0.0512 -0.140522,0.119186 -0.07576,0.06799 -0.12662,0.116291 -0.04981,0.03938 -0.06476,0.0512 -0.07078,0.06405 -0.165767,0.02582 -0.07321,-0.03117 -0.112587,-0.08098 -0.0512,-0.06476 -0.04679,-0.141095 0.0044,-0.07634 0.06418,-0.123594 0.03985,-0.03151 0.06765,-0.03729 0.05166,-0.01656 0.166236,-0.107137 0.348695,-0.275666 0.458755,-0.443622 z"
           id="path9159"
           style="fill:#000000;stroke:#000000;stroke-opacity:1;stroke-width:0.26431814;stroke-dasharray:none" />
        <path
           d="m 34.874459,51.297498 q -0.04384,-0.139314 0.04096,-0.166 0.03634,-0.01144 0.08412,0.01347 0.03982,0.02076 0.05697,0.07527 0.02669,0.0848 0.03359,0.508675 0.0041,0.351527 0.02126,0.406042 0.01334,0.0424 -0.01089,0.05003 -0.02423,0.0076 -0.01538,0.07806 0.01826,0.22725 0.03541,0.281764 0.02669,0.0848 0.143339,0.07472 0.05833,-0.005 0.08412,0.01347 0.02995,0.01055 0.05731,0.05519 0.02927,0.0507 0.04003,0.1272 0.0054,0.03825 -0.01694,0.05193 -0.01817,0.0057 -0.09467,0.01648 -0.01211,0.0038 -0.02423,0.0076 -0.01402,-0.0022 -0.02008,-3.39e-4 -0.169601,0.05337 -0.11623,0.222972 0.01906,0.06057 0.03228,0.229495 0.01288,0.189 0.05468,0.448781 0.03329,0.169261 0.04024,0.233645 0.0069,0.06438 0.0056,0.144695 0.0028,0.07235 0.02241,0.219286 0.0335,0.275707 0.07353,0.402908 0.0324,0.102971 0.06426,0.119576 0.02389,0.01245 0.03342,0.04274 0.03431,0.109029 -0.04456,0.260331 -0.05396,0.103522 -0.09031,0.114959 -0.01212,0.0038 -0.03219,0.0035 -0.01402,-0.0022 -0.02008,-3.39e-4 -0.008,-0.0042 -0.02008,-3.39e-4 -0.102294,-0.0078 -0.114069,-0.02402 -0.0099,-0.01021 -0.02321,-0.05261 -0.04193,-0.133258 -0.08272,-0.453271 -0.04079,-0.320013 -0.04659,-0.571153 6.78e-4,-0.04015 -0.03977,-0.380246 -0.04236,-0.346148 -0.03304,-0.422307 0.02436,-0.134147 -0.03397,-0.129107 -0.01817,0.0057 -0.03668,0.03151 -0.06193,0.09937 -0.284475,0.196032 -0.222548,0.09666 -0.412693,0.296293 -0.114535,0.122583 -0.187221,0.145456 -0.05452,0.01715 -0.154564,-0.0046 -0.136053,-0.03041 -0.162739,-0.115213 -0.01144,-0.03634 0.0097,-0.09624 0.02558,-0.08794 0.01415,-0.124278 -0.01334,-0.0424 -8.9e-4,-0.06629 0.03355,-0.08378 -0.02541,-0.398079 -0.02601,-0.124955 -0.0122,-0.229156 0.01122,-0.0701 -0.0078,-0.130673 -0.01715,-0.05452 0.01203,-0.236781 0.0202,-0.126183 0.0011,-0.186755 -0.0095,-0.03029 -0.02131,-0.04655 -0.04935,-0.05104 -0.0352,-0.175319 0.01224,-0.130335 0.09323,-0.169135 l 0.03634,-0.01144 q 0.115086,-0.03622 0.266388,0.04265 0.06752,0.04532 0.07705,0.07561 0.0076,0.02423 0.01042,0.09658 0.01042,0.09658 -0.04198,0.226233 -0.145287,0.278715 -0.04676,0.866811 0.01838,0.100727 0.02219,0.112841 0.01906,0.06057 0.06146,0.04723 0.03029,-0.0095 0.06697,-0.04105 0.06506,-0.0471 0.222548,-0.09666 0.06057,-0.01906 0.09692,-0.0305 0.03444,-0.01749 0.06887,-0.03499 0.03253,-0.02355 0.04274,-0.03342 0.01627,-0.01178 0.05295,-0.04329 0.03668,-0.03151 0.06315,-0.05316 0.209544,-0.159138 0.18646,-0.338269 -0.01491,-0.06854 -0.02398,-0.245422 -0.0091,-0.176886 -0.01635,-0.221192 -0.0089,-0.07044 0.01538,-0.07807 0.01211,-0.0038 -0.0094,-0.156808 -0.02253,-0.09276 -0.0141,-0.235213 0.01449,-0.144356 -0.0023,-0.218948 -0.02029,-0.106784 0.01326,-0.190567 0.03355,-0.08378 0.0183,-0.132242 z"
           id="path9161"
           style="fill:#000000;stroke:#000000;stroke-opacity:1;stroke-width:0.26431814;stroke-dasharray:none" />
      </g>
      <g
         aria-label="5"
         id="text1212-34"
         style="font-size:6.35px;line-height:1.25;font-family:Myfont;-inkscape-font-specification:'Myfont, Normal';letter-spacing:0px;word-spacing:0px;fill:#000000;stroke:#000000;stroke-width:0.26431814;stroke-opacity:1;stroke-dasharray:none"
         transform="rotate(-90,25,25)">
        <path
           d="m 23.049628,118.17403 q 0.0889,-0.0381 0.17145,-0.0381 0.10795,0 0.1778,0.0508 0.0762,0.0508 0.0762,0.13335 0,0.0825 -0.0508,0.12065 -0.0508,0.0318 -0.18415,0.0381 -0.1524,0.0127 -0.48895,0.0952 -0.32385,0.0826 -0.69215,0.10795 -0.01905,0 -0.05715,0.006 -0.28575,0.0191 -0.3048,0.0572 -0.0064,0.0127 -0.0064,0.0254 0,0.006 0.0381,0.14605 0.0254,0.0762 0.0254,0.24765 0,0.3048 -0.05715,0.508 -0.01905,0.0762 -0.01905,0.13335 0,0.127 0.0762,0.127 0.0508,0 0.1016,-0.0444 0.04445,-0.0381 0.2921,-0.0381 0.0889,0 0.2032,0.0127 0.13335,0.0191 0.3429,0.127 0.2159,0.1016 0.31115,0.19685 0.1143,0.1143 0.1905,0.2159 0.0762,0.1016 0.0889,0.14605 0.0127,0.0381 0.0127,0.19685 0,0.508 -0.37465,1.00965 -0.12065,0.17145 -0.12065,0.18415 0,0.0317 -0.1778,0.1778 -0.17145,0.1397 -0.2667,0.18415 -0.31115,0.1397 -0.56515,0.1397 -0.0127,0 -0.0381,0 -0.01905,-0.006 -0.0254,-0.006 -0.18415,-0.0254 -0.32385,-0.12065 -0.1397,-0.1016 -0.18415,-0.2413 -0.0254,-0.1016 -0.0254,-0.10795 0,-0.0444 0.08255,-0.0699 0.08255,-0.0317 0.12065,-0.0317 0.0508,0 0.10795,0.0952 0.0889,0.1778 0.3556,0.19685 h 0.05715 q 0.28575,0 0.43815,-0.1397 0.2286,-0.18415 0.3048,-0.2921 0.08255,-0.10795 0.27305,-0.51435 0.0635,-0.1143 0.0635,-0.37465 0,-0.0445 -0.0064,-0.0508 -0.04445,-0.1397 -0.10795,-0.27305 -0.0254,-0.0444 -0.1778,-0.1397 -0.1524,-0.0952 -0.29845,-0.1524 -0.1905,-0.0698 -0.3175,-0.0698 -0.12065,0 -0.2159,0.0571 -0.0635,0.0381 -0.29845,0.22225 -0.1778,0.14605 -0.22225,0.14605 -0.03175,0 -0.05715,-0.0191 -0.0635,-0.0318 -0.08255,-0.0762 -0.01905,-0.0444 -0.01905,-0.1651 0,-0.0889 0.05715,-0.18415 0.05715,-0.0952 0.06985,-0.1397 0.13335,-0.4953 0.13335,-0.6604 0,-0.22225 -0.0889,-0.41275 -0.09525,-0.2032 -0.09525,-0.28575 0,-0.10795 0.09525,-0.1905 0.09525,-0.0889 0.19685,-0.0889 0.0381,0 0.0762,0.019 0.0635,0.0444 0.4191,0.0444 0.23495,0 0.3429,-0.0254 0.3937,-0.0889 0.6477,-0.2159 z"
           id="path9164"
           style="fill:#000000;stroke:#000000;stroke-opacity:1;stroke-width:0.26431814;stroke-dasharray:none" />
      </g>
      <g
         aria-label="4-7"
         transform="rotate(-90,25.050301,25.452709)"
         id="text1212-5"
         style="font-size:6.35px;line-height:1.25;font-family:Myfont;-inkscape-font-specification:'Myfont, Normal';letter-spacing:0px;word-spacing:0px;fill:#000000;stroke:#000000;stroke-width:0.26431814;stroke-opacity:1;stroke-dasharray:none">
        <path
           d="m 28.370165,130.49731 q -0.122195,-0.08 -0.0735,-0.15437 0.02087,-0.0319 0.07361,-0.0429 0.04395,-0.009 0.09177,0.0221 0.07438,0.0487 0.348318,0.37223 0.225931,0.26934 0.273746,0.30064 0.03719,0.0243 0.02328,0.0456 -0.01391,0.0213 0.03757,0.0701 0.158124,0.16423 0.20594,0.19554 0.07438,0.0487 0.158234,-0.033 0.04193,-0.0409 0.07361,-0.0429 0.02985,-0.0108 0.07931,0.006 0.05477,0.0207 0.111569,0.073 0.0284,0.0262 0.0198,0.0509 -0.01043,0.0159 -0.0628,0.0727 -0.007,0.0106 -0.01391,0.0213 -0.01227,0.007 -0.01575,0.0125 -0.09739,0.14876 0.05137,0.24614 0.05313,0.0348 0.170394,0.15709 0.129725,0.13805 0.326683,0.31253 0.133012,0.10984 0.179184,0.15525 0.04617,0.0454 0.09601,0.10839 0.04801,0.0542 0.156289,0.15544 0.200627,0.19206 0.312196,0.26509 0.09032,0.0591 0.125482,0.0518 0.02637,-0.006 0.05294,0.0119 0.09563,0.0626 0.130492,0.22963 0.02385,0.11428 0.003,0.14615 -0.007,0.0106 -0.0227,0.0231 -0.01227,0.007 -0.01575,0.0125 -0.0088,0.002 -0.01575,0.0125 -0.08405,0.0588 -0.103463,0.0537 -0.0141,-0.002 -0.05129,-0.026 -0.116882,-0.0765 -0.351221,-0.29824 -0.234339,-0.22171 -0.397968,-0.41232 -0.02492,-0.0315 -0.27172,-0.26895 -0.252112,-0.24094 -0.293163,-0.30577 -0.06616,-0.11921 -0.108091,-0.0784 -0.01043,0.0159 -0.0084,0.0476 0.01506,0.11611 -0.09585,0.33191 -0.110913,0.2158 -0.131508,0.49073 -0.01093,0.1674 -0.05266,0.23116 -0.0313,0.0478 -0.122496,0.0944 -0.124523,0.0627 -0.198903,0.014 -0.03188,-0.0209 -0.05351,-0.0806 -0.03593,-0.0842 -0.06781,-0.1051 -0.03719,-0.0243 -0.04269,-0.0507 -0.02714,-0.0861 -0.271912,-0.29185 -0.0993,-0.0802 -0.154646,-0.16955 -0.03574,-0.0613 -0.08887,-0.0961 -0.04782,-0.0313 -0.140735,-0.1908 -0.06433,-0.11042 -0.117457,-0.1452 -0.02656,-0.0174 -0.04598,-0.0225 -0.07052,-0.008 -0.138325,-0.11332 -0.07312,-0.10859 -0.03505,-0.18992 l 0.02087,-0.0319 q 0.06608,-0.10094 0.233108,-0.1358 0.08095,-0.008 0.107516,0.01 0.02125,0.0139 0.06926,0.0681 0.06926,0.0681 0.110884,0.20162 0.06422,0.30768 0.513096,0.7002 0.07805,0.0663 0.08867,0.0732 0.05313,0.0348 0.07747,-0.002 0.01739,-0.0266 0.0258,-0.0742 0.02048,-0.0777 0.110913,-0.2158 0.03478,-0.0531 0.05565,-0.085 0.01556,-0.0353 0.03111,-0.0707 0.01024,-0.0388 0.01189,-0.0529 0.0051,-0.0194 0.01353,-0.067 0.0084,-0.0476 0.01517,-0.0812 0.06126,-0.25589 -0.07011,-0.37984 -0.05496,-0.0436 -0.174063,-0.17466 -0.1191,-0.1311 -0.152812,-0.16076 -0.05148,-0.0489 -0.03757,-0.0701 0.007,-0.0106 -0.10664,-0.11535 -0.07621,-0.0575 -0.159959,-0.17302 -0.08027,-0.12086 -0.140543,-0.16791 -0.08336,-0.0697 -0.110501,-0.15582 -0.02714,-0.0861 -0.06964,-0.1139 z"
           id="path9167"
           style="fill:#000000;stroke:#000000;stroke-opacity:1;stroke-width:0.26431814;stroke-dasharray:none" />
        <path
           d="m 31.953437,129.22522 q 0.07414,-0.0926 0.130797,-0.13346 0.128765,-0.0928 0.261384,0.0151 0.01258,0.007 0.02743,0.0272 0.03714,0.0515 -0.08192,0.16867 -0.08816,0.0949 -0.133426,0.20582 -0.03724,0.0895 -0.09162,0.14435 -0.05294,0.046 -0.239801,0.18858 -0.06696,0.0483 -0.145653,0.11285 -0.0787,0.0646 -0.131638,0.11058 -0.05151,0.0371 -0.06696,0.0483 -0.07355,0.0609 -0.166746,0.0185 -0.07176,-0.0344 -0.108898,-0.0859 -0.04828,-0.067 -0.0405,-0.14302 0.0078,-0.0761 0.06959,-0.12064 0.0412,-0.0297 0.06923,-0.0343 0.05235,-0.0143 0.17081,-0.0997 0.360542,-0.25998 0.47792,-0.42291 z"
           id="path9169"
           style="fill:#000000;stroke:#000000;stroke-opacity:1;stroke-width:0.26431814;stroke-dasharray:none" />
        <path
           d="m 34.26799,126.90432 q 0.06167,-0.0151 0.30243,-0.12648 0.239244,-0.11752 0.294749,-0.13113 0.104844,-0.0257 0.123463,-0.0564 0.01699,-0.0107 0.211433,-0.0976 0.194444,-0.0869 0.214575,-0.11147 0.06505,-0.0813 0.139056,-0.0995 0.06784,-0.0166 0.13847,0.0314 0.09064,0.0497 0.134507,0.22854 0.04235,0.17268 0.03605,0.5469 -0.0016,0.36654 -0.04738,0.6066 -0.04271,0.25238 -0.03364,0.28939 0.0091,0.037 0.06458,0.0234 0.04934,-0.0121 0.07866,-0.0258 0.135796,-0.0595 0.236219,-0.12985 0.0711,-0.0567 0.09111,-0.055 0.0185,-0.005 0.05841,0.0249 0.0491,0.0403 0.06272,0.0958 0.009,0.0632 -0.444862,0.29217 -0.140451,0.0671 -0.206896,0.11613 -0.04946,0.0383 -0.118585,0.34291 -0.05656,0.24925 -0.121856,0.72947 -0.0653,0.48022 -0.05017,0.5419 0.02722,0.11101 -0.05342,0.23539 -0.08064,0.12439 -0.185487,0.1501 -0.05551,0.0136 -0.0939,-0.01 -0.04608,-0.0279 -0.0612,-0.0896 -0.02269,-0.0925 0.02549,-0.18932 0.07459,-0.14905 0.159446,-0.86945 0.0128,-0.10775 0.07565,-0.38469 0.04853,-0.17536 0.03492,-0.23086 -0.0076,-0.0308 -0.04457,-0.0218 -0.02467,0.006 -0.04166,0.0168 -0.155929,0.084 -0.395173,0.20153 l -0.325703,0.16487 -0.0583,-0.0511 q -0.05062,-0.0464 -0.0612,-0.0896 -0.01361,-0.0555 0.03608,-0.14615 0.03421,-0.0738 0.08053,-0.0982 0.04631,-0.0244 0.254487,-0.082 0.544347,-0.15311 0.631275,-0.30519 0.07145,-0.13521 0.11033,-0.56319 0.03737,-0.43415 0.0018,-0.73925 -0.0029,-0.0385 -0.01652,-0.094 -0.01361,-0.0555 -0.08145,-0.0389 -0.0062,0.002 -0.350255,0.14474 -0.478371,0.20886 -0.77033,0.40468 -0.196191,0.13312 -0.313369,0.16185 -0.117178,0.0287 -0.173843,-0.0424 -0.02758,-0.0325 -0.03816,-0.0756 -0.0242,-0.0987 0.01176,-0.21865 0.04061,-0.12765 0.102287,-0.14277 0.0185,-0.005 0.02618,1.2e-4 0.123111,0.0221 0.351298,-0.0339 z"
           id="path9171"
           style="fill:#000000;stroke:#000000;stroke-opacity:1;stroke-width:0.26431814;stroke-dasharray:none" />
      </g>
      <g
         aria-label="6"
         id="text1212-09"
         style="font-size:6.35px;line-height:1.25;font-family:Myfont;-inkscape-font-specification:'Myfont, Normal';letter-spacing:0px;word-spacing:0px;fill:#000000;stroke:#000000;stroke-width:0.26431814;stroke-opacity:1;stroke-dasharray:none"
         transform="rotate(-90,25,25)">
        <path
           d="m 23.043276,145.75001 h -0.0254 q -0.3429,0 -0.76835,0.32385 -0.1905,0.1397 -0.24765,0.1651 -0.08255,0.0445 -0.1905,0.17145 -0.1016,0.12065 -0.1016,0.17145 0,0.0444 0.06985,0.0889 0.0508,0.0317 0.0508,0.0508 0.0064,0.019 -0.03175,0.0889 -0.0381,0.0572 -0.0381,0.0825 0,0.0508 0.15875,0.1016 0.05715,0.0254 0.1524,0.0254 0.17145,0 0.28575,-0.0762 0.13335,-0.0826 0.34925,-0.2921 0.2159,-0.20955 0.24765,-0.2794 0.0381,-0.1016 0.0889,-0.1397 0.0508,-0.0508 0.12065,-0.1905 0.06985,-0.1397 0.06985,-0.2032 0,-0.0572 -0.03175,-0.0699 -0.03175,-0.0127 -0.15875,-0.019 z m -1.16205,0.29845 q 0.0063,0 0.15875,-0.0889 l 0.1524,-0.0953 q 0.01905,0 0.1143,-0.0699 0.1143,-0.0889 0.26035,-0.15875 0.1778,-0.0889 0.2286,-0.1397 0.0635,-0.0635 0.10795,-0.0318 0.1016,0.0572 0.1397,-0.0825 l 0.01905,-0.0762 0.06985,0.0635 q 0.08255,0.0699 0.127,0.0699 0.06985,0 0.1651,0.0952 0.09525,0.0889 0.09525,0.1524 0,0.019 -0.0127,0.12065 -0.0127,0.14605 -0.0635,0.254 -0.04445,0.10795 -0.19685,0.33655 -0.1016,0.1524 -0.33655,0.38735 -0.2286,0.2286 -0.3429,0.2921 -0.40005,0.22225 -0.62865,0.22225 -0.1016,0 -0.18415,-0.0254 -0.2794,-0.0762 -0.45085,-0.45085 -0.1651,-0.381 -0.1651,-0.89535 0,-0.23495 0.0381,-0.4699 0.03175,-0.2159 0.1397,-0.59055 0.10795,-0.381 0.14605,-0.41275 0.0254,-0.0254 0.12065,-0.27305 0.1016,-0.26035 0.1524,-0.31115 0.0381,-0.0508 0.0381,-0.127 0,-0.0635 0.0508,-0.1143 0.0381,-0.0317 0.0889,-0.127 0.0508,-0.0952 0.15875,-0.14605 0.1016,-0.0572 0.127,-0.0572 0.0254,0 0.0762,0.0952 0.04445,0.0889 0.04445,0.1143 0,0.0127 -0.04445,0.127 -0.0381,0.0889 -0.12065,0.20955 -0.08255,0.12065 -0.12065,0.20955 -0.05715,0.127 -0.1016,0.15875 -0.0381,0.0381 -0.0381,0.0952 0,0.0572 -0.05715,0.1397 -0.0635,0.0952 -0.12065,0.31115 -0.06985,0.2413 -0.0889,0.24765 -0.03175,0.0254 -0.0889,0.254 -0.0508,0.22225 -0.0762,0.4445 -0.01905,0.1651 -0.01905,0.2921 0,0.2286 0.0635,0.31115 0.01905,0.0318 0.0381,0.0318 0.03175,0 0.1651,-0.13335 0.15875,-0.15875 0.17145,-0.15875 z"
           id="path9174"
           style="fill:#000000;stroke:#000000;stroke-opacity:1;stroke-width:0.26431814;stroke-dasharray:none" />
      </g>
      <g
         aria-label="7"
         id="text1212-36"
         style="font-size:6.35px;line-height:1.25;font-family:Myfont;-inkscape-font-specification:'Myfont, Normal';letter-spacing:0px;word-spacing:0px;fill:#000000;stroke:#000000;stroke-width:0.26431814;stroke-opacity:1;stroke-dasharray:none"
         transform="rotate(-90,25,25)">
        <path
           d="m 21.7126,168.66862 q 0.0635,0 0.32385,-0.0508 0.26035,-0.0572 0.3175,-0.0572 0.10795,0 0.13335,-0.0254 0.01905,-0.006 0.2286,-0.0444 0.20955,-0.0381 0.23495,-0.0572 0.08255,-0.0635 0.15875,-0.0635 0.06985,0 0.127,0.0635 0.0762,0.0699 0.0762,0.254 0,0.1778 -0.09525,0.53975 -0.0889,0.3556 -0.1905,0.57785 -0.1016,0.23495 -0.1016,0.27305 0,0.0381 0.05715,0.0381 0.0508,0 0.08255,-0.006 0.14605,-0.0254 0.26035,-0.0699 0.08255,-0.0381 0.1016,-0.0318 0.01905,0 0.0508,0.0381 0.0381,0.0508 0.0381,0.10795 -0.0063,0.0635 -0.50165,0.1778 -0.1524,0.0317 -0.2286,0.0635 -0.05715,0.0254 -0.19685,0.3048 -0.1143,0.2286 -0.2921,0.67945 -0.1778,0.45085 -0.1778,0.51435 0,0.1143 -0.10795,0.2159 -0.10795,0.1016 -0.2159,0.1016 -0.05715,0 -0.0889,-0.0317 -0.0381,-0.0381 -0.0381,-0.1016 0,-0.0953 0.06985,-0.1778 0.10795,-0.127 0.36195,-0.80645 0.0381,-0.1016 0.1651,-0.3556 0.0889,-0.15875 0.0889,-0.2159 0,-0.0317 -0.0381,-0.0317 -0.0254,0 -0.04445,0.006 -0.17145,0.0444 -0.4318,0.1016 l -0.3556,0.0825 -0.04445,-0.0635 q -0.0381,-0.0571 -0.0381,-0.1016 0,-0.0572 0.06985,-0.13335 0.0508,-0.0635 0.1016,-0.0762 0.0508,-0.0127 0.2667,-0.019 0.56515,-0.019 0.6858,-0.14605 0.1016,-0.1143 0.2413,-0.5207 0.1397,-0.41275 0.1778,-0.71755 0.0063,-0.0381 0.0063,-0.0952 0,-0.0572 -0.06985,-0.0572 -0.0064,0 -0.37465,0.0572 -0.51435,0.0889 -0.84455,0.20955 -0.22225,0.0826 -0.3429,0.0826 -0.12065,0 -0.15875,-0.0826 -0.01905,-0.0381 -0.01905,-0.0825 0,-0.1016 0.0635,-0.20955 0.06985,-0.1143 0.13335,-0.1143 0.01905,0 0.0254,0.006 0.1143,0.0508 0.34925,0.0508 z"
           id="path9177"
           style="fill:#000000;stroke:#000000;stroke-opacity:1;stroke-width:0.26431814;stroke-dasharray:none" />
      </g>
      <g
         aria-label="1-2-4-7"
         id="text1212-42"
         style="font-size:6.35px;line-height:1.25;font-family:Myfont;-inkscape-font-specification:'Myfont, Normal';letter-spacing:0px;word-spacing:0px;fill:#000000;stroke:#000000;stroke-width:0.26431814;stroke-opacity:1;stroke-dasharray:none"
         transform="rotate(-82.457518,14.5962,16.127337)">
        <path
           d="m 25.383938,160.87368 q -0.03557,-0.0631 -0.02555,-0.0873 0.0037,-0.0251 0.05423,-0.0626 0.05958,-0.0553 0.06145,-0.0679 0.0075,-0.0503 0.202178,-0.0213 0.244961,0.0364 0.574804,0.14961 0.23936,0.0741 0.845821,0.18346 0.893521,0.16487 1.350599,0.32909 0.213304,0.0766 0.307519,0.0906 0.06909,0.0103 0.0898,5e-4 0.01536,-0.017 0.0247,-0.0798 0.0425,-0.37245 0.0016,-0.44273 -0.01418,-0.0342 0.01561,-0.0619 0.02351,-0.0286 0.02724,-0.0537 -0.0016,-0.0323 -0.0014,-0.0772 -0.006,-0.0458 -0.0042,-0.0584 0.0019,-0.0126 -0.01952,-0.0414 l 9.33e-4,-0.006 q 0.0047,-0.0314 0.07588,-0.0786 0.06586,-0.0544 0.103549,-0.0488 0.06909,0.0103 0.07928,0.11449 0.01112,0.0979 -0.0096,0.58278 -0.01408,0.26753 0.01022,0.57929 0.01894,0.30454 0.04823,0.36667 0.03998,0.0766 0.02785,0.15821 -0.01307,0.0879 -0.0752,0.11722 -0.06213,0.0293 -0.13122,0.019 -0.09422,-0.014 -0.142345,-0.0789 -0.04278,-0.0577 -0.03345,-0.12052 0.0075,-0.0503 0.02028,-0.0933 0.01281,-0.043 0.02308,-0.11213 0.0224,-0.15074 -0.059,-0.20778 -0.05814,-0.0407 -0.306333,-0.14181 -0.254471,-0.10201 -0.384506,-0.13417 -0.03769,-0.006 -0.308452,-0.0844 -0.227732,-0.0659 -0.75882,-0.16412 -0.586684,-0.11285 -0.596446,-0.13356 -0.0088,-0.027 -0.306585,-0.0969 -0.09863,-0.0275 -0.230532,-0.0471 -0.100497,-0.0149 -0.103297,0.004 -0.0028,0.0188 0.05441,0.0659 0.03395,0.0307 0.209747,0.23018 0.176727,0.19317 0.223242,0.22576 0.0921,0.0715 0.0809,0.14684 -0.0112,0.0754 -0.106601,0.11255 -0.07656,0.04 -0.14005,-0.008 -0.06349,-0.0479 -0.06952,-0.0938 -0.0051,-0.0521 -0.151351,-0.23434 -0.145322,-0.1885 -0.189289,-0.19504 -0.0314,-0.005 -0.03837,-0.0442 -0.01418,-0.0342 -0.157203,-0.15176 -0.149307,-0.11848 -0.164417,-0.1464 z"
           id="path1398"
           style="fill:#000000;stroke:#000000;stroke-opacity:1;stroke-width:0.26431814;stroke-dasharray:none" />
        <path
           d="m 27.883935,157.54006 q 0.0223,-0.11652 0.05332,-0.1791 0.07049,-0.14224 0.238157,-0.10876 0.0142,-6e-5 0.03696,0.0112 0.0569,0.0282 0.0063,0.18741 -0.03363,0.12507 -0.02185,0.2443 0.0089,0.0965 -0.01359,0.17044 -0.02533,0.0654 -0.123958,0.27874 -0.03665,0.074 -0.07608,0.16783 -0.03942,0.0939 -0.06475,0.15926 -0.0282,0.0569 -0.03665,0.074 -0.0366,0.0882 -0.138815,0.0942 -0.0795,0.003 -0.136401,-0.0251 -0.07397,-0.0366 -0.102617,-0.10755 -0.02865,-0.0709 0.0052,-0.13917 0.02256,-0.0455 0.04521,-0.0626 0.03963,-0.0371 0.104474,-0.16793 0.197367,-0.39828 0.225056,-0.59716 z"
           id="path1400"
           style="fill:#000000;stroke:#000000;stroke-opacity:1;stroke-width:0.26431814;stroke-dasharray:none" />
        <path
           d="m 29.52122,153.25224 q 0.01943,-0.0259 0.04359,-0.056 0.02416,-0.0301 0.03835,-0.0429 0.01,-0.0174 0.01943,-0.0259 0.02366,-0.0212 0.05903,-0.0102 0.03064,0.0152 0.07895,-0.0451 0.04782,-0.0513 0.09639,-0.0351 0.03113,0.006 0.158655,-0.0227 0.123288,-0.0336 0.157162,0.004 0.04658,0.0521 0.100874,0.0461 0.04957,-0.002 0.155422,0.11656 l 0.08469,0.0946 q 0.168377,0.20722 0.165888,0.25205 -0.01146,0.0443 0.04932,0.24558 0.07199,0.24234 0.134766,0.56961 0.06751,0.32304 0.05556,0.37634 -0.0072,0.0491 0.01994,0.28892 0.02292,0.23512 0.05605,0.36737 0.02093,0.10909 0.04111,0.31258 0.05831,0.73176 0.151463,0.83587 0.04234,0.0473 0.109835,-0.11533 l 0.08642,-0.17958 q 0.09539,-0.17908 0.166614,-0.32802 0.07123,-0.14895 0.07322,-0.18481 0.003,-0.0538 0.04931,-0.0782 l 0.02366,-0.0212 q 0.04259,-0.0381 0.153918,-0.18034 0.111826,-0.15118 0.154415,-0.18929 l 0.02366,-0.0212 q 0.08842,-0.0536 0.0934,-0.14322 0.0092,-0.0849 0.08667,-0.10312 0.07746,-0.0182 0.11158,-0.0658 l 0.0095,-0.008 q 0.04259,-0.0381 0.12279,-0.0247 0.0802,0.0134 0.126778,0.0655 0.03811,0.0426 0.03039,0.10063 -0.0025,0.0448 -0.18231,0.20573 -0.06152,0.055 -0.137729,0.13176 l -0.08045,0.072 q -0.06675,0.0682 -0.27919,0.41172 -0.211945,0.3345 -0.27844,0.47921 -0.07222,0.16688 -0.131499,0.26252 -0.135234,0.24883 -0.145934,0.52255 -0.004,0.0717 -0.02391,0.1066 -0.01943,0.0259 -0.06202,0.064 -0.04259,0.0381 -0.07248,0.0904 -0.03512,0.0655 -0.05828,0.0777 -0.01843,0.008 -0.0675,7.5e-4 -0.08443,-0.0182 -0.139481,-0.0797 -0.127029,-0.14196 -0.110602,-0.43785 0.01095,-0.19726 0.0052,-0.33699 -0.001,-0.14396 -0.02168,-0.33848 -0.02491,-0.19926 -0.03264,-0.30312 -0.02442,-0.37011 -0.196816,-1.47696 -0.109864,-0.69415 -0.342254,-0.96338 -0.07198,-0.0805 -0.111585,-0.0961 -0.03487,-0.0199 -0.111334,-0.0197 -0.121296,-0.002 -0.244332,0.10786 -0.06152,0.055 -0.158649,0.18456 -0.135487,0.17236 -0.178076,0.21047 -0.06152,0.055 -0.05828,0.0777 0.01171,0.0321 -0.08716,0.27398 -0.07272,0.17584 -0.09488,0.33201 -0.01743,0.15193 -0.01792,0.48468 10e-4,0.14397 -0.05105,0.19054 -0.05205,0.0466 -0.18132,0.0259 -0.1203,-0.0202 -0.154175,-0.058 -0.03387,-0.0379 -0.04484,-0.16439 -0.0062,-0.13076 0.02042,-0.20573 0.03088,-0.0702 0.0767,-0.24757 0.05055,-0.18158 0.09438,-0.32305 0.04383,-0.14147 0.07222,-0.16688 0.03313,-0.0296 0.03063,-0.1467 -0.003,-0.10809 0.07695,-0.17111 l 0.01893,-0.0169 q 0.15616,-0.13973 0.248806,-0.35044 0.04607,-0.10088 0.123779,-0.20449 z"
           id="path1402"
           style="fill:#000000;stroke:#000000;stroke-opacity:1;stroke-width:0.26431814;stroke-dasharray:none" />
        <path
           d="m 34.083361,152.34149 q 0.09662,-0.0688 0.162281,-0.0926 0.149232,-0.0541 0.247324,0.0859 0.0103,0.01 0.01896,0.0336 0.02166,0.0597 -0.124882,0.13987 -0.110723,0.0672 -0.184575,0.16154 -0.06028,0.0759 -0.127576,0.11383 -0.0635,0.0298 -0.282195,0.11589 -0.0776,0.0282 -0.170943,0.0688 -0.09334,0.0406 -0.15684,0.0704 -0.05969,0.0216 -0.0776,0.0281 -0.08737,0.0385 -0.165447,-0.0278 -0.05964,-0.0527 -0.08129,-0.11236 -0.02815,-0.0776 1.09e-4,-0.14865 0.02826,-0.0711 0.0999,-0.097 0.04775,-0.0173 0.07596,-0.014 0.05425,5.8e-4 0.191545,-0.0492 0.41785,-0.15159 0.575273,-0.27625 z"
           id="path1404"
           style="fill:#000000;stroke:#000000;stroke-opacity:1;stroke-width:0.26431814;stroke-dasharray:none" />
        <path
           d="m 37.99625,150.27403 q -0.0038,-0.146 0.08506,-0.14832 0.03809,-9.9e-4 0.07717,0.0361 0.03257,0.0309 0.03406,0.088 0.0023,0.0889 -0.107695,0.49828 -0.09279,0.33908 -0.0913,0.39621 0.0012,0.0444 -0.02423,0.0451 -0.02539,6.6e-4 -0.03627,0.0708 -0.04499,0.2235 -0.0435,0.28063 0.0023,0.0889 0.117241,0.11128 0.05746,0.0112 0.07717,0.0361 0.02589,0.0184 0.03991,0.0688 0.01419,0.0568 0.0035,0.13331 -0.0054,0.0383 -0.03058,0.0453 -0.01904,5e-4 -0.09555,-0.0102 -0.0127,3.3e-4 -0.02539,6.6e-4 -0.01286,-0.006 -0.01921,-0.006 -0.177739,0.005 -0.173104,0.18237 0.0017,0.0635 -0.03213,0.22952 -0.03963,0.18525 -0.07093,0.4465 -0.01457,0.17189 -0.02561,0.2357 -0.01104,0.0638 -0.03445,0.14065 -0.01722,0.0703 -0.03881,0.21698 -0.04366,0.27428 -0.04019,0.40759 0.0028,0.10791 0.02887,0.13264 0.01954,0.0186 0.02037,0.0503 0.003,0.11426 -0.114484,0.23801 -0.08037,0.0847 -0.118456,0.0857 -0.0127,3.3e-4 -0.03191,-0.006 -0.01286,-0.006 -0.01921,-0.006 -0.0065,-0.006 -0.01921,-0.006 -0.09621,-0.0356 -0.103056,-0.0545 -0.0067,-0.0125 -0.0078,-0.057 -0.0036,-0.13965 0.04521,-0.45854 0.04885,-0.31888 0.112388,-0.56192 0.0117,-0.0384 0.06641,-0.37651 0.05454,-0.34443 0.08446,-0.41509 0.06033,-0.12226 0.0029,-0.13347 -0.01904,5e-4 -0.04394,0.0202 -0.08688,0.0785 -0.327439,0.11018 -0.240555,0.0317 -0.478297,0.17128 -0.143848,0.0863 -0.220022,0.0883 -0.05713,0.001 -0.147325,-0.047 -0.12243,-0.0667 -0.124748,-0.15555 -9.93e-4,-0.0381 0.03577,-0.0899 0.0488,-0.0775 0.0478,-0.11558 -0.0012,-0.0444 0.01739,-0.064 0.05531,-0.0713 0.08512,-0.3897 0.0094,-0.12729 0.05134,-0.22366 0.03008,-0.0643 0.02843,-0.12779 -0.0015,-0.0571 0.07673,-0.22432 0.05415,-0.11576 0.0525,-0.17923 -8.27e-4,-0.0317 -0.0077,-0.0506 -0.0334,-0.0626 0.01441,-0.17824 0.04764,-0.12193 0.136176,-0.13694 l 0.03809,-0.001 q 0.120609,-0.003 0.244364,0.11432 0.05244,0.0622 0.05327,0.0939 6.62e-4,0.0254 -0.01656,0.0957 -0.01656,0.0957 -0.102615,0.20594 -0.21638,0.22797 -0.283506,0.82047 -0.01005,0.1019 -0.0097,0.1146 0.0017,0.0635 0.04609,0.0623 0.03174,-8.3e-4 0.07568,-0.021 0.07551,-0.0274 0.240556,-0.0317 0.06348,-0.002 0.101566,-0.003 0.03792,-0.007 0.07584,-0.0147 0.03776,-0.0137 0.05029,-0.0204 0.01888,-0.007 0.06282,-0.027 0.04394,-0.0202 0.07535,-0.0337 0.245248,-0.0953 0.272352,-0.27389 0.0045,-0.07 0.04449,-0.24255 0.03997,-0.17255 0.04515,-0.21715 0.01087,-0.0702 0.03627,-0.0708 0.0127,-3.3e-4 0.03411,-0.15334 0.0039,-0.0954 0.05117,-0.23001 0.05365,-0.13479 0.05801,-0.21113 0.0099,-0.10825 0.06519,-0.17956 0.05531,-0.0713 0.05399,-0.1221 z"
           id="path1406"
           style="fill:#000000;stroke:#000000;stroke-opacity:1;stroke-width:0.26431814;stroke-dasharray:none" />
        <path
           d="m 40.965472,152.38048 q 0.118592,0.003 0.185412,0.0233 0.151864,0.0462 0.14629,0.21713 0.0024,0.014 -0.005,0.0383 -0.0185,0.0607 -0.183837,0.037 -0.128891,-0.0127 -0.244583,0.0184 -0.09377,0.0245 -0.170363,0.0145 -0.06867,-0.0143 -0.295279,-0.0766 -0.07897,-0.0241 -0.178013,-0.0476 -0.09904,-0.0235 -0.167713,-0.0378 -0.06075,-0.0185 -0.07897,-0.024 -0.09297,-0.0217 -0.115667,-0.12151 -0.0161,-0.0779 0.0024,-0.13867 0.02405,-0.079 0.08929,-0.11884 0.06524,-0.0399 0.13814,-0.0177 0.0486,0.0148 0.0692,0.0343 0.04305,0.033 0.182763,0.0756 0.42522,0.12949 0.625956,0.12424 z"
           id="path1408"
           style="fill:#000000;stroke:#000000;stroke-opacity:1;stroke-width:0.26431814;stroke-dasharray:none" />
        <path
           d="m 44.079612,152.67707 q 0.05108,0.0377 0.290677,0.15154 0.243373,0.10871 0.289343,0.14267 0.08683,0.0641 0.122354,0.0588 0.0191,0.006 0.210288,0.10006 0.191193,0.0939 0.222942,0.0936 0.104128,-0.002 0.165421,0.0432 0.05618,0.0415 0.06443,0.12654 0.01979,0.10145 -0.08962,0.24958 -0.105635,0.14302 -0.397295,0.37757 -0.28278,0.23321 -0.496549,0.35162 -0.221314,0.12863 -0.24395,0.15927 -0.02264,0.0307 0.02333,0.0646 0.04086,0.0302 0.07017,0.0439 0.132569,0.0663 0.250918,0.0985 0.08904,0.0184 0.100587,0.0348 0.01532,0.0113 0.01823,0.0608 4.65e-4,0.0635 -0.03349,0.10947 -0.04283,0.0473 -0.509149,-0.15503 -0.14145,-0.065 -0.221606,-0.0847 -0.06106,-0.0135 -0.339431,0.12822 -0.227756,0.11597 -0.638635,0.37299 -0.410879,0.25701 -0.448606,0.30809 -0.06791,0.0919 -0.215104,0.10953 -0.147195,0.0176 -0.234027,-0.0465 -0.04597,-0.034 -0.05264,-0.0784 -0.008,-0.0533 0.02972,-0.10436 0.05659,-0.0766 0.161821,-0.10152 0.162286,-0.038 0.770275,-0.43364 0.09101,-0.0591 0.344073,-0.18795 0.165826,-0.0749 0.199781,-0.12084 0.01886,-0.0255 -0.01178,-0.0482 -0.02043,-0.0151 -0.03953,-0.0213 -0.164318,-0.0661 -0.407691,-0.17482 l -0.33508,-0.14487 0.002,-0.0775 q 0.0033,-0.0686 0.02972,-0.10436 0.03395,-0.046 0.135412,-0.0658 0.07859,-0.0209 0.126996,-9.3e-4 0.04841,0.02 0.225844,0.14313 0.46591,0.32045 0.638411,0.28997 0.149633,-0.0316 0.503456,-0.27547 0.357596,-0.24901 0.569332,-0.47154 0.02774,-0.0269 0.0617,-0.0728 0.03395,-0.046 -0.02223,-0.0875 -0.0051,-0.004 -0.335312,-0.17662 -0.466547,-0.23408 -0.803832,-0.33321 -0.227816,-0.0656 -0.324864,-0.13732 -0.09705,-0.0717 -0.07865,-0.16072 0.0073,-0.042 0.03372,-0.0777 0.06036,-0.0817 0.175576,-0.13083 0.124094,-0.0504 0.175172,-0.0127 0.01532,0.0113 0.01666,0.0202 0.06176,0.10878 0.250746,0.24837 z"
           id="path1410"
           style="fill:#000000;stroke:#000000;stroke-opacity:1;stroke-width:0.26431814;stroke-dasharray:none" />
      </g>
      <path
         style="fill:#000000;stroke:#000000;stroke-width:0.99899904;stroke-linecap:butt;stroke-linejoin:miter;stroke-dasharray:none;stroke-opacity:1"
         d="m 175,37.5 v -15"
         id="path1540"
         sodipodi:nodetypes="cc" />
      <path
         style="fill:#000000;stroke:#000000;stroke-width:0.99899904;stroke-linecap:butt;stroke-linejoin:miter;stroke-dasharray:none;stroke-opacity:1"
         d="M 162.5,27.5 V 12.500001"
         id="path2193" />
      <path
         style="fill:#000000;stroke:#000000;stroke-width:0.99899904;stroke-linecap:butt;stroke-linejoin:miter;stroke-dasharray:none;stroke-opacity:1"
         d="M 150,37.5 V 22.500001"
         id="path2193-1" />
      <path
         style="fill:#000000;stroke:#000000;stroke-width:0.99899904;stroke-linecap:butt;stroke-linejoin:miter;stroke-dasharray:none;stroke-opacity:1"
         d="M 137.5,27.499999 V 12.5"
         id="path2193-3" />
      <path
         style="fill:#000000;stroke:#000000;stroke-width:0.99899904;stroke-linecap:butt;stroke-linejoin:miter;stroke-dasharray:none;stroke-opacity:1"
         d="M 125,37.499999 V 22.5"
         id="path2193-8" />
      <path
         style="fill:#000000;stroke:#000000;stroke-width:0.99899904;stroke-linecap:butt;stroke-linejoin:miter;stroke-dasharray:none;stroke-opacity:1"
         d="M 100,37.5 V 22.500001"
         id="path2193-82" />
      <path
         style="fill:#000000;stroke:#000000;stroke-width:0.99899904;stroke-linecap:butt;stroke-linejoin:miter;stroke-dasharray:none;stroke-opacity:1"
         d="M 74.877079,37.499999 V 22.5"
         id="path2193-7" />
      <path
         style="fill:#000000;stroke:#000000;stroke-width:0.99899904;stroke-linecap:butt;stroke-linejoin:miter;stroke-dasharray:none;stroke-opacity:1"
         d="M 62.5,27.5 V 12.500001"
         id="path2193-12" />
      <path
         style="fill:#000000;stroke:#000000;stroke-width:0.99899904;stroke-linecap:butt;stroke-linejoin:miter;stroke-dasharray:none;stroke-opacity:1"
         d="M 50,37.499999 V 22.5"
         id="path2193-77" />
      <path
         style="fill:#000000;stroke:#000000;stroke-width:0.99899904;stroke-linecap:butt;stroke-linejoin:miter;stroke-dasharray:none;stroke-opacity:1"
         d="M 37.5,27.5 V 12.500001"
         id="path2193-5" />
      <path
         style="fill:#000000;stroke:#000000;stroke-width:0.99899904;stroke-linecap:butt;stroke-linejoin:miter;stroke-dasharray:none;stroke-opacity:1"
         d="M 25,37.5 V 22.500001"
         id="path2193-6" />
      <path
         id="path785"
         style="fill:#000000;stroke:#000000;stroke-width:1.36226512;stroke-opacity:1;stroke-dasharray:none"
         d="M 25,30.681818 A 6.8181829,6.818182 0 0 1 31.818183,37.5 6.8181829,6.818182 0 0 1 25,44.318182 6.8181829,6.818182 0 0 1 18.181817,37.5 6.8181829,6.818182 0 0 1 25,30.681818 Z" />
      <path
         id="path785-6"
         style="display:inline;fill:#000000;stroke:#000000;stroke-width:1.36226512;stroke-opacity:1;stroke-dasharray:none"
         d="M 50,30.681818 A 6.8181829,6.818182 0 0 1 56.818183,37.5 6.8181829,6.818182 0 0 1 50,44.318182 6.8181829,6.818182 0 0 1 43.181817,37.5 6.8181829,6.818182 0 0 1 50,30.681818 Z" />
      <path
         id="path785-1"
         style="display:inline;fill:#000000;stroke:#000000;stroke-width:1.36227491;stroke-opacity:1;stroke-dasharray:none"
         d="m 34.999928,18.843459 a 6.8183797,6.8183406 1.5270634 0 1 -3.843426,-8.8435174 6.8183797,6.8183406 1.5270634 0 1 8.843568,-3.843401 6.8183797,6.8183406 1.5270634 0 1 3.843425,8.8435174 6.8183797,6.8183406 1.5270634 0 1 -8.843567,3.843401 z" />
      <path
         id="path785-2"
         style="display:inline;fill:#000000;stroke:#000000;stroke-width:1.36226512;stroke-opacity:1;stroke-dasharray:none"
         d="m 61.172229,19.187648 a 6.8181829,6.818182 11.22953 0 1 -5.359877,-8.01542 6.8181829,6.818182 11.22953 0 1 8.015421,-5.3598752 6.8181829,6.818182 11.22953 0 1 5.359876,8.0154192 6.8181829,6.818182 11.22953 0 1 -8.01542,5.359876 z" />
      <path
         id="path785-23"
         style="display:inline;fill:#000000;stroke:#000000;stroke-width:1.36226512;stroke-opacity:1;stroke-dasharray:none"
         d="m 74.877083,30 a 6.8181829,6.818182 0 0 1 6.818183,6.818182 6.8181829,6.818182 0 0 1 -6.818183,6.818182 A 6.8181829,6.818182 0 0 1 68.0589,36.818182 6.8181829,6.818182 0 0 1 74.877083,30 Z" />
      <path
         id="path785-3"
         style="display:inline;fill:#000000;stroke:#000000;stroke-width:1.36226512;stroke-opacity:1;stroke-dasharray:none"
         d="M 100,30.681818 A 6.8181829,6.818182 0 0 1 106.81818,37.5 6.8181829,6.818182 0 0 1 100,44.318182 6.8181829,6.818182 0 0 1 93.181817,37.5 6.8181829,6.818182 0 0 1 100,30.681818 Z" />
      <path
         id="path785-8"
         style="display:inline;fill:#000000;stroke:#000000;stroke-width:1.36226512;stroke-opacity:1;stroke-dasharray:none"
         d="M 125,30.681818 A 6.8181829,6.818182 0 0 1 131.81818,37.5 6.8181829,6.818182 0 0 1 125,44.318182 6.8181829,6.818182 0 0 1 118.18182,37.5 6.8181829,6.818182 0 0 1 125,30.681818 Z" />
      <path
         id="path785-4"
         style="display:inline;fill:#000000;stroke:#000000;stroke-width:1.36226512;stroke-opacity:1;stroke-dasharray:none"
         d="M 150,30.681818 A 6.8181829,6.818182 0 0 1 156.81818,37.5 6.8181829,6.818182 0 0 1 150,44.318182 6.8181829,6.818182 0 0 1 143.18182,37.5 6.8181829,6.818182 0 0 1 150,30.681818 Z" />
      <path
         id="path785-0"
         style="display:inline;fill:#000000;stroke:#000000;stroke-width:1.362;stroke-opacity:1;stroke-dasharray:none"
         d="M 175,30.681818 A 6.8181829,6.818182 0 0 1 181.81818,37.5 6.8181829,6.818182 0 0 1 175,44.318182 6.8181829,6.818182 0 0 1 168.18182,37.5 6.8181829,6.818182 0 0 1 175,30.681818 Z" />
      <path
         id="path785-05"
         style="display:inline;fill:#000000;stroke:#000000;stroke-width:1.36226512;stroke-opacity:1;stroke-dasharray:none"
         d="m 135.00934,18.846975 a 6.8181829,6.818182 21.42576 0 1 -3.85633,-8.837638 6.8181829,6.818182 21.42576 0 1 8.83763,-3.8563395 6.8181829,6.818182 21.42576 0 1 3.85634,8.8376385 6.8181829,6.818182 21.42576 0 1 -8.83764,3.856339 z" />
      <path
         id="path785-02"
         style="display:inline;fill:#000000;stroke:#000000;stroke-width:1.36226512;stroke-opacity:1;stroke-dasharray:none"
         d="m 162.64925,19.316443 a 6.8162954,6.8199922 44.789709 0 1 -6.96576,-6.663507 6.8162954,6.8199922 44.789709 0 1 6.66726,-6.96938 6.8162954,6.8199922 44.789709 0 1 6.96575,6.663509 6.8162954,6.8199922 44.789709 0 1 -6.66725,6.969378 z"
         inkscape:transform-center-x="-0.40450154"
         inkscape:transform-center-y="0.14924117" />
    </g>
  </g>
</svg>
