M48
INCH,TZ
T1C0.1260
T2C0.1969
T3C0.3937
%
G90
G05
T1
X20866Y-40551
X20866Y-57874
X97244Y-40551
X97244Y-57874
T2
X29528Y-48228
X34449Y-50197
X39370Y-48228
X44291Y-50197
X49213Y-48228
X59055Y-48228
X68898Y-48228
X73819Y-50197
X78740Y-48228
X83661Y-50197
X88583Y-48228
T3
X29528Y-54134
X34449Y-44291
X39370Y-54134
X44291Y-44291
X49213Y-54134
X59055Y-54134
X68976Y-54055
X73819Y-44291
X78740Y-54134
X83661Y-44291
X88583Y-54134
T0
M30
