M48
INCH,TZ
T1C0.0315
T2C0.0354
T3C0.0394
T4C0.1063
%
G90
G05
T1
X26346Y-43701
X26346Y-45079
X30346Y-43701
X30346Y-45079
X33661Y-52134
X33661Y-56134
X35039Y-52134
X35039Y-56134
X38583Y-42291
X38583Y-46291
X39961Y-42291
X39961Y-46291
X43504Y-52134
X43504Y-56134
X44882Y-52134
X44882Y-56134
X49575Y-46063
X53346Y-52331
X53346Y-56331
X53575Y-46063
X54724Y-52331
X54724Y-56331
X62480Y-41687
X62480Y-42687
X62480Y-43687
X62480Y-44687
X62480Y-45687
X62480Y-46687
X62480Y-47687
X63071Y-49331
X63189Y-52134
X63189Y-56134
X64567Y-52134
X64567Y-56134
X65039Y-49331
X65480Y-41687
X65480Y-42687
X65480Y-43687
X65480Y-44687
X65480Y-45687
X65480Y-46687
X65480Y-47687
X67717Y-42094
X67717Y-46094
X69291Y-42094
X69291Y-46094
X73031Y-52134
X73031Y-56134
X74409Y-52134
X74409Y-56134
X78740Y-42291
X78740Y-46291
X83661Y-52134
X83661Y-56134
X88583Y-42291
X88583Y-46291
X89992Y-42291
X89992Y-46291
X91339Y-42291
X91339Y-46291
T2
X29026Y-48228
X30026Y-48228
X33947Y-50197
X34947Y-50197
X38868Y-48228
X39868Y-48228
X43789Y-50197
X44789Y-50197
X48711Y-48228
X49711Y-48228
X58553Y-48228
X59553Y-48228
X68396Y-48228
X69396Y-48228
X73317Y-50197
X74317Y-50197
X78238Y-48228
X79238Y-48228
X83159Y-50197
X84159Y-50197
X88081Y-48228
X89081Y-48228
T3
X51268Y-42504
X51268Y-43504
X52268Y-42504
X52268Y-43504
X53268Y-42504
X53268Y-43504
X54268Y-42504
X54268Y-43504
X55268Y-42504
X55268Y-43504
X56268Y-42504
X56268Y-43504
X57268Y-42504
X57268Y-43504
X58268Y-42504
X58268Y-43504
T4
X27008Y-54331
X28543Y-56654
X29724Y-51614
X31394Y-56000
X31929Y-44488
X32047Y-53150
X33465Y-46811
X34646Y-41772
X36315Y-46157
X36850Y-54331
X36969Y-43307
X38386Y-56654
X39567Y-51614
X41236Y-56000
X41772Y-44488
X41890Y-53150
X43307Y-46811
X44488Y-41772
X46157Y-46157
X46693Y-54331
X46811Y-43307
X48228Y-56654
X49409Y-51614
X51079Y-56000
X51732Y-53150
X56535Y-54331
X58071Y-56654
X59252Y-51614
X60921Y-56000
X61575Y-53150
X66378Y-54331
X67913Y-56654
X69094Y-51614
X70764Y-56000
X71299Y-44488
X71417Y-53150
X72835Y-46811
X74016Y-41772
X75685Y-46157
X76220Y-54331
X76339Y-43307
X77756Y-56654
X78937Y-51614
X80606Y-56000
X81142Y-44488
X81260Y-53150
X82677Y-46811
X83858Y-41772
X85528Y-46157
X86063Y-54331
X86181Y-43307
X87598Y-56654
X88780Y-51614
X90449Y-56000
X91102Y-53150
T0
M30
