G04 #@! TF.GenerationSoftware,KiCad,Pcbnew,(6.0.5)*
G04 #@! TF.CreationDate,2022-07-31T15:37:13-05:00*
G04 #@! TF.ProjectId,KosmoPulseMain,4b6f736d-6f50-4756-9c73-654d61696e2e,rev?*
G04 #@! TF.SameCoordinates,Original*
G04 #@! TF.FileFunction,Legend,Top*
G04 #@! TF.FilePolarity,Positive*
%FSLAX46Y46*%
G04 Gerber Fmt 4.6, Leading zero omitted, Abs format (unit mm)*
G04 Created by KiCad (PCBNEW (6.0.5)) date 2022-07-31 15:37:13*
%MOMM*%
%LPD*%
G01*
G04 APERTURE LIST*
%ADD10C,0.120000*%
G04 APERTURE END LIST*
D10*
X84935000Y-125955000D02*
X84935000Y-129045000D01*
X84935000Y-129044830D02*
G75*
G03*
X90485000Y-127499538I2560000J1544830D01*
G01*
X90485000Y-127500462D02*
G75*
G03*
X84935000Y-125955170I-2990000J462D01*
G01*
X89995000Y-127500000D02*
G75*
G03*
X89995000Y-127500000I-2500000J0D01*
G01*
X130350000Y-145350000D02*
X124500000Y-145350000D01*
X132850000Y-143300000D02*
X132850000Y-143350000D01*
X120500000Y-145350000D02*
X117100000Y-145350000D01*
X132850000Y-137100000D02*
X132850000Y-143300000D01*
X132850000Y-143350000D02*
X132110000Y-143940000D01*
X117100000Y-145350000D02*
X117100000Y-140000000D01*
X127500000Y-129600000D02*
X132850000Y-129600000D01*
X131290000Y-144590000D02*
X130350000Y-145350000D01*
X117100000Y-136000000D02*
X117100000Y-129600000D01*
X117100000Y-129600000D02*
X123500000Y-129600000D01*
X132850000Y-129600000D02*
X132850000Y-132800000D01*
X147435000Y-120955000D02*
X147435000Y-124045000D01*
X147435000Y-124044830D02*
G75*
G03*
X152985000Y-122499538I2560000J1544830D01*
G01*
X152985000Y-122500462D02*
G75*
G03*
X147435000Y-120955170I-2990000J462D01*
G01*
X152495000Y-122500000D02*
G75*
G03*
X152495000Y-122500000I-2500000J0D01*
G01*
X70500000Y-145350000D02*
X67100000Y-145350000D01*
X82850000Y-129600000D02*
X82850000Y-132800000D01*
X67100000Y-136000000D02*
X67100000Y-129600000D01*
X67100000Y-129600000D02*
X73500000Y-129600000D01*
X80350000Y-145350000D02*
X74500000Y-145350000D01*
X82850000Y-137100000D02*
X82850000Y-143300000D01*
X81290000Y-144590000D02*
X80350000Y-145350000D01*
X82850000Y-143300000D02*
X82850000Y-143350000D01*
X77500000Y-129600000D02*
X82850000Y-129600000D01*
X67100000Y-145350000D02*
X67100000Y-140000000D01*
X82850000Y-143350000D02*
X82110000Y-143940000D01*
X102500000Y-129600000D02*
X107850000Y-129600000D01*
X92100000Y-129600000D02*
X98500000Y-129600000D01*
X92100000Y-136000000D02*
X92100000Y-129600000D01*
X105350000Y-145350000D02*
X99500000Y-145350000D01*
X107850000Y-143350000D02*
X107110000Y-143940000D01*
X107850000Y-143300000D02*
X107850000Y-143350000D01*
X92100000Y-145350000D02*
X92100000Y-140000000D01*
X107850000Y-129600000D02*
X107850000Y-132800000D01*
X106290000Y-144590000D02*
X105350000Y-145350000D01*
X107850000Y-137100000D02*
X107850000Y-143300000D01*
X95500000Y-145350000D02*
X92100000Y-145350000D01*
X104600000Y-120350000D02*
X104600000Y-115000000D01*
X104600000Y-104600000D02*
X111000000Y-104600000D01*
X118790000Y-119590000D02*
X117850000Y-120350000D01*
X104600000Y-111000000D02*
X104600000Y-104600000D01*
X120350000Y-112100000D02*
X120350000Y-118300000D01*
X117850000Y-120350000D02*
X112000000Y-120350000D01*
X108000000Y-120350000D02*
X104600000Y-120350000D01*
X120350000Y-104600000D02*
X120350000Y-107800000D01*
X120350000Y-118350000D02*
X119610000Y-118940000D01*
X120350000Y-118300000D02*
X120350000Y-118350000D01*
X115000000Y-104600000D02*
X120350000Y-104600000D01*
X172435000Y-120955000D02*
X172435000Y-124045000D01*
X177985000Y-122500462D02*
G75*
G03*
X172435000Y-120955170I-2990000J462D01*
G01*
X172435000Y-124044830D02*
G75*
G03*
X177985000Y-122499538I2560000J1544830D01*
G01*
X177495000Y-122500000D02*
G75*
G03*
X177495000Y-122500000I-2500000J0D01*
G01*
X92850000Y-120350000D02*
X87000000Y-120350000D01*
X95350000Y-118300000D02*
X95350000Y-118350000D01*
X95350000Y-112100000D02*
X95350000Y-118300000D01*
X79600000Y-111000000D02*
X79600000Y-104600000D01*
X79600000Y-104600000D02*
X86000000Y-104600000D01*
X90000000Y-104600000D02*
X95350000Y-104600000D01*
X93790000Y-119590000D02*
X92850000Y-120350000D01*
X95350000Y-118350000D02*
X94610000Y-118940000D01*
X79600000Y-120350000D02*
X79600000Y-115000000D01*
X83000000Y-120350000D02*
X79600000Y-120350000D01*
X95350000Y-104600000D02*
X95350000Y-107800000D01*
X209935000Y-125955000D02*
X209935000Y-129045000D01*
X215485000Y-127500462D02*
G75*
G03*
X209935000Y-125955170I-2990000J462D01*
G01*
X209935000Y-129044830D02*
G75*
G03*
X215485000Y-127499538I2560000J1544830D01*
G01*
X214995000Y-127500000D02*
G75*
G03*
X214995000Y-127500000I-2500000J0D01*
G01*
X217850000Y-120350000D02*
X212000000Y-120350000D01*
X204600000Y-120350000D02*
X204600000Y-115000000D01*
X215000000Y-104600000D02*
X220350000Y-104600000D01*
X218790000Y-119590000D02*
X217850000Y-120350000D01*
X220350000Y-104600000D02*
X220350000Y-107800000D01*
X220350000Y-118350000D02*
X219610000Y-118940000D01*
X204600000Y-111000000D02*
X204600000Y-104600000D01*
X208000000Y-120350000D02*
X204600000Y-120350000D01*
X220350000Y-112100000D02*
X220350000Y-118300000D01*
X204600000Y-104600000D02*
X211000000Y-104600000D01*
X220350000Y-118300000D02*
X220350000Y-118350000D01*
X195350000Y-104600000D02*
X195350000Y-107800000D01*
X179600000Y-111000000D02*
X179600000Y-104600000D01*
X190000000Y-104600000D02*
X195350000Y-104600000D01*
X192850000Y-120350000D02*
X187000000Y-120350000D01*
X179600000Y-104600000D02*
X186000000Y-104600000D01*
X195350000Y-118300000D02*
X195350000Y-118350000D01*
X183000000Y-120350000D02*
X179600000Y-120350000D01*
X195350000Y-118350000D02*
X194610000Y-118940000D01*
X195350000Y-112100000D02*
X195350000Y-118300000D01*
X193790000Y-119590000D02*
X192850000Y-120350000D01*
X179600000Y-120350000D02*
X179600000Y-115000000D01*
X222435000Y-120955000D02*
X222435000Y-124045000D01*
X227985000Y-122500462D02*
G75*
G03*
X222435000Y-120955170I-2990000J462D01*
G01*
X222435000Y-124044830D02*
G75*
G03*
X227985000Y-122499538I2560000J1544830D01*
G01*
X227495000Y-122500000D02*
G75*
G03*
X227495000Y-122500000I-2500000J0D01*
G01*
X184935000Y-125955000D02*
X184935000Y-129045000D01*
X184935000Y-129044830D02*
G75*
G03*
X190485000Y-127499538I2560000J1544830D01*
G01*
X190485000Y-127500462D02*
G75*
G03*
X184935000Y-125955170I-2990000J462D01*
G01*
X189995000Y-127500000D02*
G75*
G03*
X189995000Y-127500000I-2500000J0D01*
G01*
X142100000Y-129600000D02*
X148500000Y-129600000D01*
X157850000Y-129600000D02*
X157850000Y-132800000D01*
X157850000Y-137100000D02*
X157850000Y-143300000D01*
X142100000Y-145350000D02*
X142100000Y-140000000D01*
X145500000Y-145350000D02*
X142100000Y-145350000D01*
X156290000Y-144590000D02*
X155350000Y-145350000D01*
X142100000Y-136000000D02*
X142100000Y-129600000D01*
X157850000Y-143300000D02*
X157850000Y-143350000D01*
X152500000Y-129600000D02*
X157850000Y-129600000D01*
X155350000Y-145350000D02*
X149500000Y-145350000D01*
X157850000Y-143350000D02*
X157110000Y-143940000D01*
X97435000Y-120955000D02*
X97435000Y-124045000D01*
X102985000Y-122500462D02*
G75*
G03*
X97435000Y-120955170I-2990000J462D01*
G01*
X97435000Y-124044830D02*
G75*
G03*
X102985000Y-122499538I2560000J1544830D01*
G01*
X102495000Y-122500000D02*
G75*
G03*
X102495000Y-122500000I-2500000J0D01*
G01*
X109935000Y-125955000D02*
X109935000Y-129045000D01*
X109935000Y-129044830D02*
G75*
G03*
X115485000Y-127499538I2560000J1544830D01*
G01*
X115485000Y-127500462D02*
G75*
G03*
X109935000Y-125955170I-2990000J462D01*
G01*
X114995000Y-127500000D02*
G75*
G03*
X114995000Y-127500000I-2500000J0D01*
G01*
X182850000Y-137100000D02*
X182850000Y-143300000D01*
X167100000Y-129600000D02*
X173500000Y-129600000D01*
X170500000Y-145350000D02*
X167100000Y-145350000D01*
X182850000Y-143350000D02*
X182110000Y-143940000D01*
X177500000Y-129600000D02*
X182850000Y-129600000D01*
X181290000Y-144590000D02*
X180350000Y-145350000D01*
X167100000Y-145350000D02*
X167100000Y-140000000D01*
X167100000Y-136000000D02*
X167100000Y-129600000D01*
X180350000Y-145350000D02*
X174500000Y-145350000D01*
X182850000Y-129600000D02*
X182850000Y-132800000D01*
X182850000Y-143300000D02*
X182850000Y-143350000D01*
X205350000Y-145350000D02*
X199500000Y-145350000D01*
X206290000Y-144590000D02*
X205350000Y-145350000D01*
X207850000Y-143300000D02*
X207850000Y-143350000D01*
X202500000Y-129600000D02*
X207850000Y-129600000D01*
X207850000Y-137100000D02*
X207850000Y-143300000D01*
X192100000Y-129600000D02*
X198500000Y-129600000D01*
X192100000Y-136000000D02*
X192100000Y-129600000D01*
X192100000Y-145350000D02*
X192100000Y-140000000D01*
X207850000Y-129600000D02*
X207850000Y-132800000D01*
X195500000Y-145350000D02*
X192100000Y-145350000D01*
X207850000Y-143350000D02*
X207110000Y-143940000D01*
X231290000Y-144590000D02*
X230350000Y-145350000D01*
X230350000Y-145350000D02*
X224500000Y-145350000D01*
X232850000Y-143350000D02*
X232110000Y-143940000D01*
X227500000Y-129600000D02*
X232850000Y-129600000D01*
X217100000Y-145350000D02*
X217100000Y-140000000D01*
X220500000Y-145350000D02*
X217100000Y-145350000D01*
X217100000Y-129600000D02*
X223500000Y-129600000D01*
X232850000Y-143300000D02*
X232850000Y-143350000D01*
X232850000Y-129600000D02*
X232850000Y-132800000D01*
X217100000Y-136000000D02*
X217100000Y-129600000D01*
X232850000Y-137100000D02*
X232850000Y-143300000D01*
X72435000Y-120955000D02*
X72435000Y-124045000D01*
X72435000Y-124044830D02*
G75*
G03*
X77985000Y-122499538I2560000J1544830D01*
G01*
X77985000Y-122500462D02*
G75*
G03*
X72435000Y-120955170I-2990000J462D01*
G01*
X77495000Y-122500000D02*
G75*
G03*
X77495000Y-122500000I-2500000J0D01*
G01*
X197435000Y-120955000D02*
X197435000Y-124045000D01*
X197435000Y-124044830D02*
G75*
G03*
X202985000Y-122499538I2560000J1544830D01*
G01*
X202985000Y-122500462D02*
G75*
G03*
X197435000Y-120955170I-2990000J462D01*
G01*
X202495000Y-122500000D02*
G75*
G03*
X202495000Y-122500000I-2500000J0D01*
G01*
X122435000Y-120955000D02*
X122435000Y-124045000D01*
X127985000Y-122500462D02*
G75*
G03*
X122435000Y-120955170I-2990000J462D01*
G01*
X122435000Y-124044830D02*
G75*
G03*
X127985000Y-122499538I2560000J1544830D01*
G01*
X127495000Y-122500000D02*
G75*
G03*
X127495000Y-122500000I-2500000J0D01*
G01*
M02*
